<mxfile host="65bd71144e">
    <diagram id="yn6D_odh12bHCshazwg3" name="Page-1">
        <mxGraphModel dx="1650" dy="945" grid="1" gridSize="10" guides="1" tooltips="1" connect="1" arrows="1" fold="1" page="1" pageScale="1" pageWidth="850" pageHeight="1100" math="0" shadow="0">
            <root>
                <mxCell id="0"/>
                <mxCell id="1" parent="0"/>
                <mxCell id="81" value="" style="rounded=0;whiteSpace=wrap;html=1;fillColor=#f5f5f5;fontColor=#333333;strokeColor=#666666;" vertex="1" parent="1">
                    <mxGeometry width="850" height="1100" as="geometry"/>
                </mxCell>
                <mxCell id="24" value="" style="shape=image;verticalLabelPosition=bottom;labelBackgroundColor=#ffffff;verticalAlign=top;aspect=fixed;imageAspect=0;image=data:image/png,iVBORw0KGgoAAAANSUhEUgAAAQIAAAECCAYAAAAVT9lQAAAACXBIWXMAAAsTAAALEwEAmpwYAAAAGXRFWHRTb2Z0d2FyZQBBZG9iZSBJbWFnZVJlYWR5ccllPAAAG5ZJREFUeNrsXV1onFd6PvMjjSxLnilOSdoEPGENoSxUE9qL0k3xF1qa3BRNIVDJDmh8USil4PHV7s3iEb3ZO49hL3JTPLowyl3k7G7xXnlEs9BlWzIqdGkhuxmVbOOFhEqRZMvS/PS80jvJWJ7v/5zv93ngZGxn5vvO73Oe9z3vOSeztHTVEEJQAgAgnWhnmQTiQgQ1mcoxyGeZ8xoHoP3R/kZ+xAjr6/caUc/x8vI1ynRL5rUdg3yWY1KnJ3lE+6e7/bNQRQAAgAgAAAARAAAAIgAAAEQAAACIAAAAEAEAACACAABABAAAgAgAAAARAAAAIgAAAEQAAACIAAAAEAEAACACAABABAAAgAgAAAARAAAAIgAAAEQAAACIAAAAEAEAACACAABABAAAgAgAAAARAAAAIgAAAEQAAACIAAAAEAEAACACAABABAAAgAgAAAARAAAAIgAAAEQAAACIAAAAEAEAACACAAAcIrO0dLUhP2sydWOQ3wWZtmXaiXg+SzJdkmlL94uGw+HMUIgZ+TknU16m8/Kf8/w/Z+R/Z55v9cyo/nq5XG4qI8SR/POvM5nMIdo/Xu2vAGWZWnn+S5v+EoNMNzmfnYjns8Lk2lD50KOjo5eOj48v9/v9ihzwlweDwYKPjnqCc+fOnXw+efLkdyURHGSz2Y+yuVxnZmbmo3wut4/2j077awLlU4yIoLu+fq8d9RwvL1+jmaAT9bzKfNLHjop8fuc7f1aVH4ZMVZ5llGJ6evrkc29vjz5ITbzF6bsyrdHA+9nP/qWN9g+n/QPIqzFOBECEIAd/jQf+YshZWaEk87NJs1tUCAFQDxBBdAa/wTKNCKAYsexdkemhzON9yqMkhB20GIgAUDf4Szz46zpkvwaQQumSYpFksIEWTA6wfBgOAZRlIsdXV6bbMSGBEUitfCDz30JLQhEAHglAnHqSVxJQnBUuTxWmAhQB4FwB0Az6aUJIYNx30GYTBwARAGY+ADYBkkYA41gAGcA0AEzQHwxeYR+A6hWAbfF8FGhFhLvSQGRAiqeKlgcRAKcqwLhw4cL758+ff9HHQO+MpZMgGqd2uHw/kQLNzgYTBKUgnJGLpH5kPuvoBSCCVJsBPCsuDodDtwO/LdMGD/iun3zI34/Cb9vjPgqerats1+vCDfmuDQQegQjSSgJVJoGii8FPA781NnC1gcmFfBVNJoUaJx1KYYPegZUEEEHaVMCGi1k29Nh9JoUGJQ5lbir2LxT5mTX0kPgAqwb+VEDXAQnsyrQq0+/IQViLkmyWeWnNzs6+l8/nNxU/eoVDpgEogkSrAJrx7JYDezL9LQ22KJeHziAoFAptnsFJ3SwoejSpDpABFEEiSYA88B0bEtiVM+za1NTUz6NOAmdNBpmofHcUPfIKVAGIIIkkQMtiHwtrBxv5AMrz8/MtVgSxAy//XVf0OCwlggiSYwrQkpg43RxkBjqS6k32AcTeW85K5k1x6t/wg0VepQBABLE3Bch+tjogZJUkddLWzrk8hgIyqKEngQjiTAJVJgEz59k2q4BGUuuAYxzqIAIQQZr9AR8I8/V1OqmnkoYIOjYTbvp4xCWYByCCOJJAy8YfcFMOjlTtwZdlbTL5eQU2I0UciCP4hgC+3itg8hWylaspjqMnid8V3qIQydfQRC+DIogDCbQtSGArLaaAhSrY8eEvMNDLQARRJ4GysHYKEgkYfncFJshf4CUcucgrMABMg0iSwGh50EzurlFsALrJM2jI9NDD74hwO6g+KAKQQDJUQdujKoAiABGABBKGJogARAASgCqgkOttlz/D4aYgApBAArEBIgARgASAlsvvL6DKQARhk0DJhgTugwRcmwcdD+YBACKILAlQnEAtyPwkKPa+jSEEIogTCdgFC+0ERAANcRqmm5SbgUAEIIJYoGlBArR3oBYQCYwI4BYrEzrlqJGA+kWAEIgg8mrA7oDRqu47BejMPpnGCWAcN+JuIgRxJwMAIvAzAMnmv2Hxles6NxD1+v25417v2+I0FPeSiRr5a5X7F5h02iEcGAqHYQKQTyAJ0DLhXYuvrOk8XXjs7sPzFiaJoWo2ZVXREOHdttwVwdytCIAIXA0Kq5l+S+cyIfsCblncfbityiRxcb9CEERwBUMJRBAVEhhdP1a0mImrGt9NKsPqkFMlKxT8rjqnYgSqvothFH9klpau0ixWFu4jxcJAk/P53Iz61Vdffa/f779l9sPp6envS7X+kQ5/wP7eXlOqgG+N/m1qakoUZmaE/PfTSs5kfjU3P1/P53L7ft61v7//Tq/Xq8l3mZkdolAo3JydnXWjOEYKyVP77+3t1WSebFWJrIPflkqlJV3tHzFUuF7jcK8D5bM7IoJaTJh9geX1M7NqfzB4adDvv2baCbPZ38hB+InqzMgBOScHwcJZZSXfJ3Iyyf9HI2B/Kp8nNeD5whMuH9nhM3bfzcl3ZTMZN6qj7Gdml0RYHg4G9j4CmSeuB+XtH0GU2G+yFYMxdSICRh24tb5+rxH1HC8vXyP7vyHz2h6TyhU7v4DQEDQ09t7nzKv5+XkxNzcnPv/8c1+OQV4BoFnwNRc/q7tZEZF1etLuXtt/5Bdx8FXyzxiq2z+i/dTgfBoxGFON2PsIxmxzK1u5ppEErN7b80oCTADUQElywiHmIMKIu7PQKnKQsKo66MWBU3Ik0f/bIwk4nWHjhh0Mt+gitgFFfBPRio0UbWgggbawWTen25Clnf6Fx9cYCe1rUAQgAm0mgRVqGl7dEvb76jf5NmTgWXRRBSAC1bCT5jpMAloKWrT5mrZYhbgD+xJABEpBa+nC2om2LRTfqsPOwdsOvlpL01VoLkyZLQw1EIEyDIfDGQqosflaXeVgHHMO2mGND/UE4B8AEehEr99/zSqqjuxzDYOxIew31ZBJUE9pH3JyTHkbQw1EoGpmrkpJYHeqT03xO0n23nBCFik0CUYogghABEGRgJNVgjUN9xM68TVs87XhqYPDsw+2cW8kiEClPC8GKc35cJMFh3lLK8pQAyCCIGcdO3ne1OAgdDLAt3UecpIQ/wAcqCCCQOT5rlC8XMjqwsmpO42U9x8npgEUAYggEHne1OCoc2Jm7KZZDbBqsmub+yl2ooIIFHa0wNUAk48TT3gr5X3HiRqAWQAiUDIr2w1IHWrAqdxPOxHYhVLvgghABH5n5bJwthVXtRowHPoGthE7b6sINmAWgAiCmJXXNHS0msPvpXqm470XdoTZxPACEfjtZE6O6G4ofm9JON852E55v7Fzpm5BMYEI/MLJTLKpIVqNSKAIIlDiH4AaABH4ttGdnNOno6MZDr+3nWbb18GqStqDrEAEQfgG6Hx8Tdt9nZoF3ZT3mVqQJhuQMiJwqgZyudwDDe+uwCxQ0kZQAyAC/WqAUCgUHmh4dwVdQUkbQQ3EFJE4ztyxbyCT2Z+emnoUMhGkUhE4aKNNqAEogkDUQDab/Y2m90MRQA2ACEKeaSrC4Y0+uWz2CxBBJNXAmptr1gAQwSQ4PVDkvvBxkagNiugKlrCS/Gk+rxFEoGimKQtnUYSEDU15gBqwrh+S/FbhxDXsKQAR+EXNxXd1Sc8SuoElUVvN9vdxhDuIwG8nK7mQlFsROgAzTcRhdaPUttBzrRyQMkXgJrY/SrNOKkwJNgmsTiCqwiQAEaiAGwdTlIiglAISMIT1eRA3sbsQRKCio1WEs6PCCbsR63SVhJNAxYZ419J6jwOIIFw10I5YnVUSTAKji2TMTDby1cAvACJQ1tmqESICt3ZuMYlLjtwubQulRjcaGxgyIAJVcOMk1E4EHs2ORA0IumXahgQoaAjxAiAC5UTgFEH5B3Zdfr+WJBJ48uRJzYYEDDgHQQQq5WdZfiy6+ElQnc/texa4LLE3B4gEJBm8CBIAEURVDQThH/BDOI2YkwD5OdogAYCQWVq62mCbV/uge/z48d9ZdLznMF0orE3l890zkpzy2VWZr6Ojo8rx8fGiy589nTl37r1cNjvJbi5znbY81BHN0Je8lmVCnT2H416vfPT06ZL8Y2F6enpUB8+UrTAz08rnco8i1l+1tL8GeG7/EHAy9gNTBP3BoOSGBAhBdcSpqan/8vCzghxMRtyY/6nMs8w3bfQqmH0loiQAaMTohKL2+vo9rVJXSlG3W1V3P/xw43vj/7C8fO2EZWVe2xry97ZwHuT0ta9ApvrZvficz7KXOnVx25IZWpPOBmCfBs1Qz5wrcPHixZPPL7/8kj5oibAWVXNAZ/tryGdZ95hSlNdG0D4Ct/6BoDujVxnX4jX4KPsD6lyfVoeLbMEnAEWguyOWhMNTiMbQDoEIbnv43SX+bTWCBEAOwaZd3WezWYoYxLkMKUZQisDLIAk0eIWDZdY8/nxRDrpWhAigxPn52I4E8vn8T8+dO4czBUAEgcDw8JswJKofm24lImRAZkBX2J/8RMuDbxYKhX/FMACirAgCJwI+/OSOTzJo9/r9uRDblJZB7UK4N2Uq48BRIDAfgctbhM5K9TDQYOLy6rm/sr+398cXisVuRNt8VdZtA10fCFoReDELtsKqECagmp9nDIfD8/1e79ukDng5MAqgo8VeBwkAcSKCUHe5sWReVfAoctQ9lGTQoSW8EPcnkLlTwdIgEJppIOLjKDxLBg2Xx61bgQKPaGnytnzmNpdvlM6SnsqYhJMDRuELAEIlAq/+gbAVwRgZ1GQZhCIyGOESp0XN2YcvAIiMaeA1SCUyB2Dw0VxrMWpTWhF4FSQARIkIDI+/i5Qty2SwGpM2bUToDggAROBLEUQOPMO+yXY3AIAIXGAhSZXFTjcitzvoOgCIwAH8rJ9H2ctNcQYyURjvq+w72EU30taHytSPor67E0RgjXKSK47scPYdUDlvihCDoBKMlkwPZfo/SQY4QVkj8iAC/wpBnG71bfLMZeRyuXdFJvPn8s8Z4X75dFd4W3JNmhogRTm+c7IoAto2DyJQCyNtlcmksLG8fI0+X5B/N7hTk1/BSt52R55+CksW7s9uSCIaZ/9hMBzOZTMZ1EzMiAB23TcEgdBel76BSWQ4lEQgQASx8xF4XTGA8w1oTPpHvpEJiAsR+Nxcg9kTamDFhAjOo4bipQjKqFpApRpgJijt7u42I7S1G0QAIgCCVAMjDAYDMjlpa3cL8QUgAiBtauB5EGF0JRlUUW3RJQIAUK4GJoBiCz6Qv22iBqNJBLDhAJ1q4Cxu8ClQMBUSpAgQTAM14AXkO+hw8BYA0wBImRoYB5381AYZRIcIINGAINXAWb8ByCAiRLCAqgUCVgOTyAATEkwDIIVqAGSQJCJA5BjUgEJl2kI1QxEA6VQD46Cbquuo8XgSAeQc1IDKXai34TyMJxGg0ZKtBgwbNXBfnIap31f4WpgIMA2AGKkBUgI1PiSW9hHcVKQOFmAixI8IDDRNotWAVfRog498O4H8c5P7g4rDYRtYRYCPAIi+Gtjkgf8M+Kg3Q2QyX/h8Ny0pYoNSjIgAAUnJVAM1GzVQM/sfpBKm8vn/zOVyP/WZjZUQr6cHEXjoNGisdKmBVSd3Nl64cOEH8uO6xnykEpmlpasNZuKuqoce93p/JOjEWR/ISfbPPi8FSSnQ3YNRv+yCTJtLXuxaWXcLdCSXj3rbkvXmpn5GhNvVWSH9weCVQb//rcm9MLMvZ/t/d6gUT9pfPu8l+bzXvOYnn8//PJPJHEat/UMAtX9rdJx5WyhcXnl8cNDkI6WEj4b6t/n5+bN5anI+o37AaYXJteGx7jwTQaFQaM3Ozrqpn5Ecb+mqjF6/P7e/t/f+cDg0y/P3JRE4yfPX7Z/LZsWTJ0/ePj46+q4nwszlPpPq4odRa/8QcNL+IyLorq/fayuU9Spm7PKPf/zhM3nii0M6KvOqAzKf9LHjJZ9+625vb6/j5u5ImVeDPnXWKZ8gZHYC8Z0HD/656TCvZ9uf9hI8kp+3PWTrL37ykx+9E7X2D6GvGjp9BCpmbAQVJQDs67lh8r93/c6avMqw5uGnRZx3+A10EYEKRVBMaVhoOWHlsTI5auMxAz7IoObRHgcRaCYCVTa8kbLZk8p7KWHlMVsuvC8H8IbC1xnCfQQiiCAGiiB1RCCRtBDYloVJoLSsrCxqHlSnARrQRARunFU2WEyZGlhMUHnqFuqm4SRmwEO/I4XhdqMSiEDoDSjaVtSh0iLfGgkigZJFeSaGEYeoquCU1kwEqvwEiScCB6G3cQMN9GIY5g8rjVUQQXSIoA0icDx7NhNUHpLaZmcNrPIGorB8E5NwCTQQD0VQ5BkzqWhZzJ5xVQNmpmIghMeqwHFsAU4v0kgE7DBUddxUIokggQ5C8guYhZYriRnQpApKIAK9UGUeXEnabkQ2CVoJKk/Zwv5fU7iS5GYi2hZAooiA0EigSZAk+9TMQag8ZsAFNjDEo0EEKhuCHFD5hMye1YSZBFblCdok0DURgQh8yLOuULgnu9fvv5IQCW1lEuzGrDxWJs6m4jBit+hgiEdDEYwkoxIMB4OXj46OXop5nW8I81WCOzHsvFYmQS3MjOmIXpwoOy79YUmmjkwtEEEw5kH+8PCwFtfK5n35Zl51Uk6NmJWnJcxjBhpBDUQbbAZEhtSuK0QIL8zk5kAEz7My2Ydrqp7X7/ffiuNGEY6FsNqXH6Yt7aU81yxIwDaMOGKrQJ5VmBz4tTP1sPCnX3z2/kw+Owci0GgeaHqe7kFDASt3Lb5SH4u468akPP9kQWpVi98aMlEZN6Jyx4BXApYkUJnUFzPD4flCLgMimFDRHcUSbYGDV+JCAm2Lr9Aa+7ht2Y14eUbOwYLJVyYqG/odm0YPxemyKUnpKET0bXokgVE9POcf6U3nt3af9h+BCExsRsXPuxX10NAxEjBzDm7x6TpxwoaFn+MXk1YJuB46FqZRHM0CM3/P7i9LL/4APgJzVdAW6h037aheYTU8Pc7digRIQsfK18HOwSsW5flLE99IW0wOnurEkQikGqhb+Ecanz4ZPgIRBKsKilEkg4ODgzd6dD+BDQnEzDnYsuj8VJ6Fs+VhErhrVg8Blb9sN65dkgD5P8xOTd40tv8jljtJAyUCVgVrih+7ICLkPKSTeY6Ojv5RWEdB1iy24/r1ERgaylQT1teYV2V5ticQx10H/gbdsArj3nKzxMnOwZYFGcZ2y3wYV57VhfrouRXueGESADnDNoT9GfvXbaLtulHqIGOzuhlWz24ockAcI1Q0592OFFsuSKAkrIPBqlIN7IAInKuCHaEncIbIIBQzgTsczfCLDkigFZfOwSszViRAJxE3XBKHG9nuF3ZEsOGCBNoW6uKmJIG2iDFCuQSVg010RHxdYZ9BJaCBUmIl8lDY7yR0RAIKtuuWFJWN8nrLSlaLMyHEXO9NhQPVL6yk+poLs6AlzFdK1uLqFxhHmLv5qiyDVZ/OQw32seyUq2dnK5UEwCZO3WH+g1QCFQVla9moG7NIyJbL9tRmU3Pk4oJfs4D3D5jVxZYkgZpIAEK7Fp07kU7nCsUZdFUec0adi4Niujxb6iIBP2qp7KN8FYcmTvWss5MJxO27dR5DZzUJbDpRXkwCKxaKyBAJQTbMl3NjXNf4CpLrd5kQ6l7i23nw18j/IP/6qTgNinE663lVAl0/ZfZYTho4Hzs0cdomxF5TPGD9qAErZ2VNBQnE2TkYJdNg1IFaNiffqiIE8ubflu+iZa42D7a2iY1d4dnNEB5OEcpkMge5fP4TH+ZA22d9jMwWWxwdHVWOj48Nh+S2alUmWg2R9XtHuIsgJOJqKDbjrOr9jp1vIG0kEAki4A5EM67QTAbjpDB6zy0Nz9+amZn5YTaTedfHM/xG3N3g69WbJnH/ZTbL6hcvXnRKdGtOBqv8Tp1NDDf3NJAZt6HiqHO+Ycns3dtWCmRsdWAhTSQQGSIIgQx0ga7bqkkiqPisiw4rFz9nGhLJ0aDsjCmfkdJZcPmsNZd7Iqo2A2riOCRl6IcM+Mi02za+jR0TEqC62bCoc/LbVJNIAqH7CCaRgTg9pSduIC/6TZn/qsKwWRUHuhR5drzFaTEAEhj5Cwzh7pi6Ubh4xSMJ1GxMgptmJCNJwM4/ckcSgJFUEogcEYykpdDrQFQNmikqGu7zi8La9E2vuyN9kkHdBQGUxgKfihZk1pykAuhEIQsTkQj+uiSAukg4slHMFDukXhfRPpd+pAIMTTf70jPXQizbdb/k5oMMyKnbsVpa5NWcOvtTbrlRNHLwl9kh+LGFQjoheEkCLZECRPZ4cLaTSSYS20dtHzuZL40Ads812N4O8kq0bTEhTsAnGVQ4/sJNO9IApaXfuzwod37/5ZcvH+zvNzlmwYn/5BkSIALgOl2xIcFGEqIFY68IxjsRmwqvi2AOobTtWDK9SnkKYgstqwJDBHfE+R02czoaykLt+KZHlUd+jkU6xXowGCw4JIGvzRraOiwT+Vw+tSEBKn85bSQQaUVwVh3QgPibpaudbDYrhHuHl1+ZTB2jFcapvKyMiAw2hKabkTKZzG/lx5Lua8no+azy6kLP0u2JovmD37v4D+/+4td5lv9OFNUaq4CuSClidXNQNpPZKRaLjd3d3S53pqqmwbHLA28j5As6zppJTaF2eXVramqqOz093QnqbsLR7lPe1NRQWJ7dly8W3/v7rf/5E/HZ7o8cmkAnBJ/k1QDHk8HS0lVqDLKd4uAUaXI+v5auh4eHl4+Pj9+QkrEyHA4vy3Tew4x4INMnUm10crlcZ3Z21q80pkFbExru/KMLXuhuB1neN7yWVZbzo3w+/4DLObKhQ2n/Xr8/9+Tx43f6/f7bsjwvWn13bn5ePD08FLK9x8vzKyrLzLlzD/K53P5fHTx6PzsYTHxOP5/71eH0VOd/zxcf/PIw94nGYmlrfw2gfHZHRHDylxhkeoGZ3JTBZWeaGQoxc/Ipk6m6yGb3qR9KlXHyqTifI2fWls7KGAyHJUkIJSaEvDgt73iZD+VIOZSD5alM+6SoMqflHUeZP0NvfzrnkctUPCnH6bmP38jXfH7YHwwO5B+JuHe4PIfj33lhJnd5NjN4uScy+/1h5vB4ODw4Hmb2D44HO/LZvYCKEkj7K8KJCBiZBq319XuNqOd4efkaydeGzGs74vk0OJ9GDOr0pN3j0v5y1kf7a2j/rAAAIPUAEQAAACIAAABEAAAAiAAAABABAAAgAgAAQAQAAIAIAAAAEQAAACIAAABEAAAAiAAAABABAAAgAgAAQAQAAIAIAAAAEQAAACIAAABEAAAAiAAAABABAAAgAgAAQAQAAIAIAAAAEQAAACIAAABEAAAAiAAAABABAAAgAgAAQAQAAIAIAAAAEQAAACIAAABEAAAAiAAAABABAAAgAgAAQAQAADhEZmnpakN+GjK1Y5DfGuezG/F8lrlOWzGoU4M/0f7pbf82EYEx1hkAAEgf2v8vwADt4XjtkDObpgAAAABJRU5ErkJggg==;" parent="1" vertex="1">
                    <mxGeometry x="740" y="995" width="90" height="90" as="geometry"/>
                </mxCell>
                <mxCell id="30" style="edgeStyle=none;html=1;entryX=0;entryY=0.5;entryDx=0;entryDy=0;strokeColor=#0000FF;fontColor=#333333;" parent="1" source="25" target="29" edge="1">
                    <mxGeometry relative="1" as="geometry"/>
                </mxCell>
                <mxCell id="25" value="authentication" style="verticalLabelPosition=bottom;html=1;verticalAlign=top;align=center;strokeColor=none;fillColor=#00BEF2;shape=mxgraph.azure.multi_factor_authentication;pointerEvents=1;fontColor=#333333;" parent="1" vertex="1">
                    <mxGeometry x="180" y="60" width="25" height="50" as="geometry"/>
                </mxCell>
                <mxCell id="35" style="edgeStyle=none;html=1;strokeColor=#0000FF;fontColor=#333333;" parent="1" source="26" target="27" edge="1">
                    <mxGeometry relative="1" as="geometry"/>
                </mxCell>
                <mxCell id="42" style="edgeStyle=none;html=1;entryX=0.02;entryY=0.9;entryDx=0;entryDy=0;entryPerimeter=0;strokeColor=#0000FF;fontColor=#333333;" parent="1" source="26" target="41" edge="1">
                    <mxGeometry relative="1" as="geometry"/>
                </mxCell>
                <mxCell id="26" value="route" style="sketch=0;aspect=fixed;html=1;points=[];align=center;image;fontSize=12;image=img/lib/mscae/Route_Filter.svg;fontColor=#333333;" parent="1" vertex="1">
                    <mxGeometry x="40" y="320" width="50" height="42" as="geometry"/>
                </mxCell>
                <mxCell id="60" value="301 redirect" style="edgeStyle=none;html=1;entryX=-0.01;entryY=0.164;entryDx=0;entryDy=0;entryPerimeter=0;strokeColor=#0000FF;" parent="1" source="27" target="56" edge="1">
                    <mxGeometry relative="1" as="geometry"/>
                </mxCell>
                <mxCell id="27" value="/auth/${provider}" style="verticalLabelPosition=bottom;html=1;verticalAlign=top;align=center;strokeColor=none;fillColor=#00BEF2;shape=mxgraph.azure.express_route;pointerEvents=1;fontColor=#333333;" parent="1" vertex="1">
                    <mxGeometry x="40" y="470" width="50" height="30" as="geometry"/>
                </mxCell>
                <mxCell id="32" style="edgeStyle=none;html=1;strokeColor=#0000CC;fontColor=#333333;" parent="1" source="29" target="26" edge="1">
                    <mxGeometry relative="1" as="geometry"/>
                </mxCell>
                <mxCell id="29" value="port: 10703" style="fontStyle=0;labelPosition=right;verticalLabelPosition=middle;align=left;verticalAlign=middle;spacingLeft=2;fontColor=#333333;" parent="1" vertex="1">
                    <mxGeometry x="300" y="70" width="30" height="30" as="geometry"/>
                </mxCell>
                <mxCell id="40" style="edgeStyle=none;html=1;entryX=0.01;entryY=0.065;entryDx=0;entryDy=0;entryPerimeter=0;strokeColor=#3333FF;fontColor=#333333;" parent="1" source="39" target="25" edge="1">
                    <mxGeometry relative="1" as="geometry"/>
                </mxCell>
                <mxCell id="39" value="HTTP&#10;protocol" style="sketch=0;outlineConnect=0;fontColor=#333333;gradientColor=none;strokeColor=#232F3E;fillColor=#ffffff;dashed=0;verticalLabelPosition=bottom;verticalAlign=top;align=center;html=1;fontSize=12;fontStyle=0;aspect=fixed;shape=mxgraph.aws4.resourceIcon;resIcon=mxgraph.aws4.http_protocol;" parent="1" vertex="1">
                    <mxGeometry x="30" y="32" width="60" height="60" as="geometry"/>
                </mxCell>
                <mxCell id="55" value="" style="edgeStyle=none;html=1;strokeColor=#0000CC;" parent="1" source="41" target="51" edge="1">
                    <mxGeometry relative="1" as="geometry"/>
                </mxCell>
                <mxCell id="41" value="/" style="verticalLabelPosition=bottom;html=1;verticalAlign=top;align=center;strokeColor=none;fillColor=#00BEF2;shape=mxgraph.azure.express_route;pointerEvents=1;fontColor=#333333;" parent="1" vertex="1">
                    <mxGeometry x="290" y="310" width="50" height="30" as="geometry"/>
                </mxCell>
                <mxCell id="51" value="&lt;pre style=&quot;overflow-wrap: break-word&quot;&gt;&quot;provider&quot;:&quot;amazon&quot;&lt;br&gt;&quot;provider&quot;:&quot;apple&quot;&lt;br&gt;&quot;provider&quot;:&quot;auth0&quot;&lt;br&gt;&quot;provider&quot;:&quot;discord&quot;&lt;br&gt;&quot;provider&quot;:&quot;facebook&quot;&lt;br&gt;&quot;provider&quot;:&quot;google&quot;&lt;br&gt;provider&quot;:&quot;instagram&quot;&lt;br&gt;&quot;provider&quot;:&quot;linkedin&quot;&lt;br&gt;&quot;provider&quot;:&quot;openid-connect&quot;&lt;br&gt;&quot;provider&quot;:&quot;stripe&quot;&lt;br&gt;&quot;provider&quot;:&quot;yahoo&quot;&lt;br&gt;&quot;provider&quot;:&quot;yandex&quot;&lt;br&gt;&lt;/pre&gt;&lt;pre style=&quot;overflow-wrap: break-word&quot;&gt;...&lt;/pre&gt;" style="strokeWidth=1;shadow=0;dashed=0;align=center;html=1;shape=mxgraph.mockup.containers.browserWindow;rSize=0;strokeColor=#666666;strokeColor2=#008cff;strokeColor3=#c4c4c4;mainText=,;recursiveResize=0;labelPosition=center;verticalLabelPosition=middle;verticalAlign=bottom;fillColor=#f5f5f5;fontColor=#333333;" parent="1" vertex="1">
                    <mxGeometry x="450" y="32" width="380" height="338" as="geometry"/>
                </mxCell>
                <mxCell id="52" value="Provider" style="strokeWidth=1;shadow=0;dashed=0;align=center;html=1;shape=mxgraph.mockup.containers.anchor;fontSize=17;fontColor=#666666;align=left;" parent="51" vertex="1">
                    <mxGeometry x="60" y="12" width="110" height="26" as="geometry"/>
                </mxCell>
                <mxCell id="53" value="https://authentication:10703/" style="strokeWidth=1;shadow=0;dashed=0;align=center;html=1;shape=mxgraph.mockup.containers.anchor;rSize=0;fontSize=17;fontColor=#666666;align=left;" parent="51" vertex="1">
                    <mxGeometry x="130" y="60" width="250" height="26" as="geometry"/>
                </mxCell>
                <mxCell id="56" value="" style="strokeWidth=1;shadow=0;dashed=0;align=center;html=1;shape=mxgraph.mockup.containers.browserWindow;rSize=0;strokeColor=#666666;strokeColor2=#008cff;strokeColor3=#c4c4c4;mainText=,;recursiveResize=0;labelPosition=center;verticalLabelPosition=middle;verticalAlign=bottom;fillColor=#f5f5f5;fontColor=#333333;" parent="1" vertex="1">
                    <mxGeometry x="450" y="390" width="380" height="550" as="geometry"/>
                </mxCell>
                <mxCell id="57" value="Sign in - Google" style="strokeWidth=1;shadow=0;dashed=0;align=center;html=1;shape=mxgraph.mockup.containers.anchor;fontSize=17;fontColor=#666666;align=left;" parent="56" vertex="1">
                    <mxGeometry x="60" y="12" width="110" height="26" as="geometry"/>
                </mxCell>
                <mxCell id="58" value="https://accounts.google.com" style="strokeWidth=1;shadow=0;dashed=0;align=center;html=1;shape=mxgraph.mockup.containers.anchor;rSize=0;fontSize=17;fontColor=#666666;align=left;" parent="56" vertex="1">
                    <mxGeometry x="130" y="60" width="250" height="26" as="geometry"/>
                </mxCell>
                <mxCell id="59" value="" style="shape=image;verticalLabelPosition=bottom;labelBackgroundColor=#ffffff;verticalAlign=top;aspect=fixed;imageAspect=0;image=data:image/png,iVBORw0KGgoAAAANSUhEUgAAAlgAAALHCAYAAABSVjxKAAAAAXNSR0IArs4c6QAAAARnQU1BAACxjwv8YQUAAAAJcEhZcwAAEnQAABJ0Ad5mH3gAAMfOSURBVHhe7N0NXBTV3gfwnygiq4ImEGJoIaYoagiSaA+a6E29Ri9k6k28immmmV7KKK5FpFFkmV7LzNK8YlfNqERTS/GFG+JVkEQUzZdCjAhQBHURUXjOvCzs4gILjm/4+35c2T17dubMmTMz/zlzdrZRuQAiIiIi0oyV+peIiIiINMIAi4iIiEhjDLCIiIiINMYAi4iIiEhjDLCIiIiINMYAi4iIiEhjDLCIiIiINMYAi4iIiEhjDLCIiIiINMYAi4iIiEhjDLCIiIiINHbDfouwdH+KmFsjWDm1RWPntmoqERERUcNzXQOsiz9sgD7mM1zJ+UNNUUgBVrO/DIdu7EQ1hYiIiKjhuC4B1uXjv+Dce2/Jf2vSpOP9aPnKG/JfIiIiooZC8zFYUlB19qXnaw2uFOVofPfNuVyY+U0UZs5aiYwSNeE6u9HzM3EiDtEzI7F6f6maYF7ehkiMezYS8TlqQgOTsfh5sXxLkKG+JiIiul40D7DOvReJ8vPn1FeAdY9esIuci7tWrpMf0vMmHTvJj1YfLEajFi3VnFopRuaWJYh+6UVMfFY6oD6PKa/ORWxSvvq+ovR8PvJO61FzyKGdGz0/ExeLkF1wGvrrHdwVHkHC4ihMf16p93HPhyIiejXScm/KUhMREd00ml4iLE37GOdmx+BKQZn8utlf/oqWr0TIz6uSgrDrEVxlLP4nopMvo0P3/gjwa49WKMTRrVuw+UQRWvWbiqjxnrBWc9/JpN6c6GQvhH0+CR5qmtSDNfM7IHhOBAKc1URL/b4JcyLjcKyxM/oE9EPf9vbQ56Zi66ZUHCt1RXBEOALaqXlvEnPLTEREdD1o2oNlVfwFWo7bjyau59G4ja7a4EqifXAlZG1ETHIxXAbPQOT0IPj79kYP30EICo9G5GAH5CWuQXyWmpc0lIXNC0Vw1cwLoe9GYPJTg0S990af4ZMwa+4kBOiyELMwFtlqbiIiooau8ZuC+vyalR15AY2alMOmxxlY95+Kxvf4qe8o/v3fS0g7WYb9Zh45heVwv/sa473jPyFmbw58hwSjZ5WhXS3tS3Ak7TguOnjB516d3Jsxc3E2Ogd6w1HNA/0JxC96F+98/g2+2fAj9pwA3C9tx4zZG9DSdwDcWuQgftZMvLWtMbxcj2H13IX4dHUcvtn0X+SgI7re37ra3rGq85N6i6a+txMtPdrj15Xz8P6ytVi7TszzVzHPHp3QytyECrYietpc7GjSB/6ddGpiKVIWvIDw2BL4/qUrKsLWQysx5bVPcOae4ej5xxKMe/1znBPPXVKk+a5Bohzt5CAx7nt8l90Oj/u0hf6XndhyGOjZuw5lkhxaj3kicu3w1+cwokcLNVFl3RYuF/+HLT/nwNF7INzt1PSyfKR9+TEWfLoSMd9+j+9/+B+yy9uhq7sDrBupeSSW5qt13QH5yd+L5W6Lh4zXeVkRMr//HO8t+EKZ/rY06O/ygGc7Q/0SERHVnWY9WOUFO9VnCuv7vdVnlVb8t1QOssw9Fm29pOa6Bo5t4CL+JGzZikLlKmUl16EImxuNyQMc1IQqykTwNHcuYg4CPYaMQeizIxFgvQtzVqaqGYwUbcG8+XvQKiAY0yYF4dF2pdj93UeI3VfXsUaFiPt4PhLs+mPysyEIGeCMCwfiEL0i1fxYrdae6OkEHDt6pPL9snQcEmVGQToyjAan5/1yBHp4oms3NUHlOPgVLPpA1ENP6ZUnJovni8Z6yu8p6lgmofC3k2JedujZ1fx1RcfHZ2P557MxpOISoajr2a9jXkI+2j4s6npSCIL9bJHx3Xy8tiRVTMvAwnx1WXcmipGx5E1ExOXAfag6/e7FiF8i5hlfpOYhIiKqO80HudeXJiPBXIPwj8ddgaOxeHlaJJZt2IvMfMuCntL/xWJ1FtDn729i2lP90MO3HwKmzEZkgJmA7KIDAsMjMGqweglyZhD6iIN1QuoRNYOliuE4KByR45VLav5jZmJsd0C/LxXH1BymnOHexRY4eKTy/YMHkQRb2OtykJRsiLCKcPxIPtDJEx42apKBjS109nawl3ujrGEvnut0xl1TdS0TcOFcofhfJ6ajvK5NaZJU17bwf9ZQ19J8wjFLrDt9cgziDtQxX13WnZHSfTFYmAwx/XCEDFenPyEck8Xypq2Lq3Z5iYiIaqNZgNWodX/1mSKj6LT6rFLP9o1NHs1tKq/xXPPlQZXj8HAseDkIfg6nkfTdMkS8+iImThXB1pYTRj0jVzu2Px2l8EJfPxHAGHHpJAK2qpy80MN4wLZNR9zrJA7YpXXtwXKGn49xr4812ncQQUHZZfX11dw9u8C6TARYJ5TXx1L3Qd8tCJN9bHFMBF7yMpYdx9HjIm+3ziLsqau6l6mwoC69PaVI2yPqWtcL/r6mde04uD+8KwJVS/PVcd0ZObYnFfqrpm8LD083EVEeR2YDvV0FERFdf5r2YF1sdj/Ol1tjamFfvHpgq5paad6YZiaPFs3UN4S77Y0H1FwbXZdBCIn8Fz77eDYixw6Cd+vTSFgzF6+9vxN5ah5TOcg+Jf44u6JtPWvEWquabNJEfVKNbt1EcFGE/Yel206cQMaBYvTw7C6CAhF4HU1X7rP12wmklVV/ya7OaimTfWvDwCoj+5Yot2owesTsk944jbPSSrBrA3vppTERqHYSRdb/kSMCRUvz1XfdqZ/TJ2JOlXJOWaVGr0RERPWkaYCVc/dkPHlmEPaVOuCPC7mI3POx+s7VoteX4M/CyuuCD3WuJbCoDxsHdPAPwuQ5HyBqmDMKD6/GZvkgfxuz6Y4HOqnjsLJSkVTgCp9eIsB5oDf8rdKxN7lULOcR5OlE0OWmfuY6a95SCoH00Bt3Ed43SB7TJD1CpPJZqLTq2LlqWJqvVq29EKKW0/QRhB6t1TxERER1pGmA5e7+ApztxdFfteHX7Zi8PQI7f98rB1znSi/Izyf9GI2Nx9LVXMqlw373N1Zf1VcxUhaFYebM1WbGzljDpa8v3MWzzGxz132c4XKf+JObhXytDtzXjR06dnOWx2El7E9HtrMXPKRAwMoTXbsDKQf2IONoFqy7dpOX90aw794ZLihC0l6jnp/WbvKYJunh0d74QmUbtJK+wld0GtLILRMlx/FbLqBr6wydxfnqu+7U6Zfo4OKjlNP04QnHquPXiIiILKRpgCV588EX0MK68oCaknsQL/8UjcANUzDwm7/Lz1ML9kLv8g5K7vpWHoc1ZXBTNfe1sEV7cSDPK9iDhD3Falol/fETyBR/HVq3URKqcO/qCeuyVOxMMv1stghWbjWOoqyOZemI/TEHjiK4UW45YI0evTxRemgz4o4D3t2Nvxl4nbkORqCIq7PjV2NzVm3j0EQ5RfBird931XrK27ITKWI9+nt1Fq8szVffdWcNj56dxfQTERdvepd/6NORtp/fIiQiovrTPMC6v9W9+M8j76OT+FubFs6JmPPMOe0GuA97DsH3XkbCkjBELIgVB+a9SNuTiPilcxHx73QRCAQiyM/8zZysHwzCKFdg97/fxMKvE5XPLXodEVUPvrcCN09464qh19vBv3fldUBrT0/00OcjW++GBzyru2mVwt5B+obdYezcIOroQE61t2CwjB36TJuEgJZZWD17FuYt3YTdRnX/XlyOWNmd0Um6h4Zg7SfVdTESPjfU9V4krIzCnO+yoPMJRmD3Ouar57rT+Y+SP5e2JgrRK7fK00/bshrR4R9j4Xc7kH1tlUJERHcwzQMsSdvmTnKQFeE7VTyvuKVjBSltYrensfav76OH891qqgasnBEQPgdRY/vCPi8RMUuWYd6SlVh9QI+2/iGICh8Kx+qWWPrszJkI7iYOuJtXYt7naxBf2hezxnipGW4lndGzq/hTdZyVvRf6SldonT3R8aqR4aZcho3Eo+0uI+W7ZVi4Lr3Gb1haROeF4HdnI9TfAYUHNmGxWvexh0rR8S8hmDt3BvpUjLkXdf26kveP7aKuRd6YpGJ4PD4D70zyMvrmo4X56rvupM9J0x/QFoVJsfL0F353ENY+UlsJhEvNMSoREVG1NP0twpr8cvY3nLt0AS4iuJICsNtF4cYoTP+mtH6/z0c3FdcdERHdLNelB8sc6dKht1O3Wze4ku4GvnQT8kwGShdh/74sQNcRHXiAvnVx3RER0S3mhvVg3fIK9mJx5DKk6LwwaogXHJtdQvZPcYg9VIQOT0Zg1jAepW9ZXHdERHSLYYBlrPAIElbFInZ/FgpLAZ2DGwKeHI8g35p/coVuAVx3RER0C2GARURERKSxGzYGi4iIiOhOwQCLiIiISGMMsIiIiIg0xgCLiIiISGMMsIiIiIg0xgCLiIiISGMMsIiIiIg0xgCLiIiISGONkpOTeaNRIiIiIg3xTu5EREREGuMlQiIiIiKNMcAiIiIi0hgDLCIiIiKNMcAiIiIi0hgDLCIiIiKNMcAiIiIi0hgDLCIiIiKNMcAiIiIi0hgDLCIiIiKNMcAiIiIi0hgDLCIiIiKNMcAiIiIi0hgDLCIiIiKNMcAiIiIi0hgDLCIiIiKNMcAiIiIi0hgDLCIiIiKNMcAiIiIi0hgDLCIiIiKNMcAiIiIi0hgDLCIiIiKNMcAiIiIi0hgDLCIiIiKNMcAiIiIi0hgDLCIiIiKNMcAiIiIi0hgDLCIiIiKNMcAiIiIi0hgDLCIiIiKNMcAiIiIi0hgDLCIiIiKNMcAiIiIi0hgDLCIiIiKNMcAiIiIi0hgDLCIiIiKNMcAiIiIi0hgDLCIiIiKNMcAiIiIi0hgDLCIiIiKNMcAiIiIi0hgDLCIiIiKNMcAiIiIi0hgDLCIiIiKNMcAiIiIi0hgDLCIiIiKNMcAiIiIi0hgDLCIiIiKNMcAiIiIi0hgDLCIiIiKNMcAiIiIi0hgDLCIiIiKNMcAiIiIi0hgDLCIiIiKNMcAiIiIi0hgDLCIiIiKNMcAiIiIi0hgDLCIiIiKNMcAiIiIi0hgDLCIiIiKNMcAiIiIi0hgDLCIiIiKNMcAiIiIi0hgDLCIiIiKNMcAiIiIi0hgDLCIiIiKNMcAiIiIi0hgDLCIiIiKNMcAiIiIi0hgDLCIiIiKNMcAiIiIi0hgDLCIiIiKNMcAiomtXdAjrlnyID75MQt4VNe12cqUIB9cvxQcfrsSuPDWNiOgaNCoX1OdEdIcrOr4DaxYtw7qkfTiYUyJSbODYtT+Gjh6DF0b5wbGxks9UEda94I0ZG5VX7q9uxpZJHZUXt4mi9VPRc/qPyouOr2LLlglwV14REdULe7CICLhyCpvDH4Pv4ImI+jZJDa4kJcg79CNWvD4Wvr5j8VlqkZpuLA+FWepTIeuCuTy3ttwzp9Rnwh9FImQkIro2DLCI7nh5WDd5CJ5ffUiEU4CN8wCMnT0PX65YgS8/i8ILT3jBTspWkISooKcRlWwIvgw6YuTr/0Cv1uKzXUdg/ggvNf324T7iTbzkJZZS1xUj3xuBXmo6EVF98RIh0R2u5KdI9By7Ug6u3P/+Gf4za8BVlwJLflmJ55+MxHa9eNFxCmI3iIDKRnmPiIiuxh4sojtcyg4luMI9/8B8M8GVxOb+MfjkozGwgR36BtwDGynQIiKiajHAIrqj5SHrhPrU3RFOZgexK2z+71Xsz0jBl6+OQLfWaiIREZnFAIvojuYIVzf16Z5DSK+pZ6qxDWyquyyY/C7uc+skHhOxJkdNq0q+FcKHmDF2CHrKecXDewiGPx+JFfHHUSTd3qFiOu9in/IpRc5ahKifiUoWryum9Rh8PY2n9S7WHarPEPVURKnTD/na9D4N+95Vpx+yVoSjQMmpJKx4fSqGD/ZW0t084Tt8LGYsuU1vUUFE1wUDLKI7nGfvEZDjJv1KPD9uEfYVyMnaylyPV4d4Y/j0RVj3kwim1GQUHMfBH1YiYuIQ+I5ehIOFanpNClPxwWN91WkdQp4hKJSntRQzhvdF0CfKgH2tHf12Knz9xyLiyx9x8LhhKaRvWiZh3btj4TskHJuNvpBIRHcuBlhEdzi7QVMQGaB0TZUkf4ggb28EvbQU24/noUSLHplTaxHy11CsOa68tPN6FC+895nyLcUFERgb4CgHeNK8//bKWiVTDVZMD8ZHh0T41NoLj02LwjLDtx0f7aoEiiLg2Tc3FB+lahxi7YlEyEs/iuDQBo4BYxC5QMxXzHv+7DHoa7hkenwtZkSul3u6iOjOxgCL6E7X+B6MXLwdX/7DT7kdgwgh9n37LkIG90WXnn0R8vpKEWzV885QV46LgChc+fYhOmLsZ7uwP3YeXnpqAPo+5Ie+j4pARaQd3h6FISJIKSqofT4l+hLY+PwDsdu/wvx/jMDD0nQCRuClBeuw50vDDUKP46PlO7W9n5WYb4l0S4oFm7HnMxEYPirmK+b92DMR+HLPdrxrCFLj52HNIfkpEd3BGGARkQiyHNF32grs3/UVIp/xgqNOTdfnYfuXkSLY8kbPsYuwq7rxVdUoSVqJqFTpmQ0efu9zRAY4yulX6TACn3wVYdn9p3SPYv6nU9BLiQZN2Pn9A+HPqC/iD+KY+lQr7jPn4d1H71FfGZGC1FdfRTf5xSnsO8I+LKI7HQMsIqrk7IWxs7/Cnv3pSFg3D+FPVAZbRT99iGf6DsGrGy0fZFR5C4gpeOkJM4GJsY4j8IIhOKqBzZhgubfLPBt49hygPNVrPQprAJ59oqv63IyO3dBXfQoOdie64zHAIqKrNbaBa/dHMfEDKdjahdjZI9BNDrSOY80Lz+Ijiy6BGd0CYpgfutVwCwiFUXBUg77utQRq101HdHJWnxIR1YIBFhHVrLEjej0ThQ3fR+BhOeE4Pli1w4Jv6Z1C3n71qYUcnW9W8EREpC0GWER3uJJTqViz5EcY/V6zeR1GINhwCW/nIQvGN90Dx57qUwvl5fAeB0TUMDDAIrqD5a2fii7+T+PVd9/BugNqYrVsYN9cfXqqyIIeLKObmG5MwsFaxyWVIH3/DvU5EdHtjQEW0R3M8aEhGCI/O4UPQhfVEgSdQvpe9alfRxE+1c57gPT7hcKpRfjsh1pumnBoKaK+VJ8TEd3mGGAR3claP4oXZnZUnh//EEGTV+KguTjoShH2fRKq3nIB6DXMD67K0xrZ+I1BuJf0rATrXngaEfHmb19QdGglQp7+UPPbKhAR3SwMsIjucN0mfY75w5SbSpXER2J4X+Xmout+SsKun3ZgzYehCPL1RtDcVPmyoE1AFOaPsnAweuOOGLsgCg+r30BcMbEvegaF4oOvd4hpi+mvl34mpy98h0diu17k/ftf5I8REd3uGGAR3eka34PHFmyuvJO7enPRGWPH4pmxE/HqwvUVv0/o/lQUNiwYAddab7lg5J4RWPb9PIxUO8qKUtfjo1cmimmL6U+Xfug5TwRuHTHyo88R+VdL+sWIiG59DLCISL4Vg+FO7u9OexR9O1beJt2uY1cMeSYCy7akYMt7I+BuuMt7XXR4FO9uThHB2RQ89lBH9Sd5ABtnMe1JUYjdtRnvDrsHRbm56jtERLe3RuWC+pyI6KY69u/HMDjyENA9AlvWjVF/V5CI6PbDHiwiur6uFOHYT+uxq7ZbXF05hM1LlVvE2/h1Y3BFRLc1BlhEdP0U7UCErzcGjw3FM+Mjsb26H4u+cgrrXgvFB3IQ1hEvBMpfPSQium3xEiERXVdZX0/E4FcMP61jh15PjMBjA/rDXfrB5pJTOLhjB77a+COOGQbST/sKG/7hpdw/i4joNsUAi4iuu7wd72L8C0txUK8mmGWHvq/GYNmkrgyuiOi2xwCLiG6MklPY9fVSxHyVhF0HjkO5n6kNHLv2Qt/AELwwYoDSq0VE1AAwwCIiIiLSGAe5ExEREWmMARYRERGRxhhgEREREWmMARYRERGRxhhgEREREWmMARYRERGRxhhgEREREWmMARYRERGRxhhgEREREWmMARYRERGRxhhgEREREWmMARYRERGRxhhgEREREWmMARYRERGRxhhgEREREWmMARYRERGRxhhgEREREWmMARYRERGRxhhgEREREWmMARYRERGRxhhgERHdIUqyC/HtlrM4ee6KmnKrKMHJ1AJ8+7/zKCpTk4hucwywqAErwb4Ph+A+tyH47Bc1ieiOdQ7LP7mIF34owWMbLqhp14se3773J9q9/CcmbtGraTX45TwmfnkJL6y9gOWH1TSi2xwDrDtBzlqEuHXCfe+mqgkNTSqipOULWYs8NUVhA5vm4qFzhZOdmnQra/Dr6RaRW4CJ4sDf7uVcfJurpt0RbNDPsxGcxLOAtk2UpFtFB2s82VL8bWIFdwclieh2xwCLGrRuk9bhcPpneMxZTSC6YzWF50gnpL5/N94foFPTbhE2dngu4m78/q4jhkkRIFEDwACLiIiISGONygX1OTU40qWzp/GZ+qrCpK/w66teyvMrRTi4cRE++tdabD5eBOgc0euRCXjp1Qno66hkqZX+ONb9ax4+WvsjjhWIk1FnLwwZ9w/8c4IfHBureVRFh9bjo4UfY80Px1EEGzj6/AUT//EaJvoZzywPa0L64tUdExCbPgJH33kNH3ybijy9lH8E/jk3Ao91MM4nf6jSgCjsWTYC0hT3vdsJQUsG4N1dn2Gk3Itl6bQlRnlPvIpeaqos+V3c9/RSPPzeLix7yrjsJTi2/kN8YKjP1h0xZMRUvPTio3CvttPAgvUkWFZ31bmComPnsPz7S/jm93IcLQPaN2+EoQ/ZYkZAS9hVPdW6rEdi3AUsTinDthLxukkjjO7WFM893hKdWlZZqefOYeN3xVh8sBwplwEnm0YY5m2D6YH2cKpyJaok+yyWr72EVUZlGB1gi3EPmZYhd0suvH4Quyanpkh9pbV8WUsmXd577xI2ohE+esUJT8hvFOFfLxcjWjwLe8YeA38/h+gkpdzS9Mc93gLPeUmVL40LOocXrrosaDwtUcZfz+LTOFHGrHKcFK+rK2O1yi7i6E8X8On2y4g/J4oskrydGmP8ky3whHszJY8k/TTaLRcVVq0miHu/DbyNyj3sER1esbmEBT9cxrdi+aS6fmKALcIG61CSehbRGy5jeaH0UWV9vfhMK7SvKLPxdFriM/GZCsViHX5duQ6rX9+WtiPjebXA680v4r3vq5a5pWjFqmtar5a4jNyUQrneNp5R14lrE0z+a3MMM14nkjI90jfqsWDvFWyUhqqJZRrYQeQdaY9+DkYNumL9ifUU3gQHVpXg01+VNiNNOyK4Fbxt9XK9vndAqatOd1nhuSftMLpLxZJTA2bJ7oJuWx3x9IoV+HLBBHSTXg57FV9Kr5/sKL8rBRCbX3saw6evRMq9gYhcMA+Ro/qg5Id38czDE7HmlJqtJnoRHDw2BDOW7IaTmP67C6IwsXcJNr87Fv83eS2yjL6slPdDOIKGh2LFflc8Pnse5s8eg776HxH1zMMI+drczHYg7LHH8EFON4ycMAUvPNMLJckrMeOvkdglHfRhh77TxPKseBVDpJfdJ2C+tHzT/MQ7talt2vVRIgK6xzB4+loU9Zki10X4MCfsWhKKwY99iH3VTre29VSfujOVu+MMHllcgmgRNBRaN0K/lsDFC+X49Ac9HhFHZJOiFYsD29vn8PQuNbiSXC7Hqv0lGPD+WaQUq2mSnAK8/LYeE/erB2Yht6Qcy3ddxCP/KsBJo2+ElYgD0oh5JXhLlEE62EhOijJEx+kxZslZ+aB3rbZ+V4RHdlSWW5r+W1+ex6e/KA3RvpWy7IaArVNL8dreCuKfTC7jx0o9QRzEDfUklfERUUYRMtdCHFAXFmJA3GWsEsGVvTR9cSxNyb2CFxYXIjqlDo2rudTCTSVv0cvTlgIViVTX0jp8a3kBxnypBlcSdX29sKbIdN2aI63vd9V1KAKcfvaN0KlMXd9vn8E2wzSFOrUj1UkRbD72zdVljt5reV3Utl5rVoKUVaLcq0T9qMGVJCXrMiYuFsueblQOEVx9O/+cmJcaXMlpwLZfL+Pp985g+S+X1ERjl/HsuxfxTzW4kkjTDlxcgOhPlHo1tPejZ8rw8rJCbNSisdOtT+rBogbuj6/Kx9/nXn7vO/vUBEXh9/8o7yzSn/zXwfKLaposS+TvJvI/GVN+Uk0y72J5yjsDyu+975Hyt/eaTKH85KpnRXq38jf+q6af+aF8ujzNj8vTLyhJsstZ5auf7Sbyjij/929qWnlu+erxIq/4/PhVWWqa4ujyESLdvfyN7cbz21f+trR8478SnzSV8o40nWfLV/+hJtRp2oa875SnqCkV9r4j5x2/tnKOF7e/KepzQPnb/y1UUxQXd71T/n9SPa80nd9VqllPdas7cwrLF8zMKXd5Kaf82e/Pq2nCifzyMSLN5aU/y//zu5pWfrn8wFd/ynld3sgv/+lsqZJcdLZ8wRvKNP7yVZGSVq4vj/9ISXvggzPlmRcvK8m/nymfqs4v/L/FSpq+oDxSTXt0xdnywitS4uXywoOGMkh59XJWyZ8/qmWIPlP+p5om+/NM+bNy/j/Lv6l4QyyfOo2qZX53lpJeWWbB7DQkF8q/iVbyj/m2Mv/FA/nlj6rTX3xETayOWJ4H1Gn/53e1HOWl5b98qy7P26fLM9VUcwr/m1vx+QUHS9TUynK5vJFXHp9nWL6i8sVvq+niMXWzYd0aze+lvPKfKjaVyuk8+2NlQ6qo67fzy38xFFkv6vSq9V2XdmRU5pmink+qy1J6vvw/hvSPCsQUVVqs1+ocMaw/UafJahu7UlyevEJd7ln55QfkxMvlmevUNKnMhvUnyvy92s6lchyQ264g2oWcJh5T1xWpbbq0/M/thnWo5E8uUreLosptYMS6c0oaNWjswbpj5WHT1+tRohuDlyZ1reyql9wzAi89dw+QuhTrDqlp5lw5hM0rTwHDpuIFH9Mub9dhz2Bs945I/+W4/Dovfi3W6W0w9h8T0M24V7/xPRj54hS4IhWfb6w6szF4doQohxH3bsqFuqz82vsSaqb1tIuw/duVKOk+AU8/ZNrvYOP3iNzDtm/PIQt6QK5Wv7ozZocX37sbv79/Nz4b1lxNE+6zRm/5STnyxJm9rOwCtu1VRg08N7wl+tmrl0Ra2ovXyqWidHE2L5+A517Eql+lJ43wSlBrtLdRLyW5tMYrDzWSny7/VTnjL0opxafSWbxtE0Q9Y69eSmoMu66tEKYUQu71utYT+xcfb2VS5kH3K0/TC6/U3pODK8g9pzy7+67KS0E2njp88EwzfCUeA+9WE6vTtY08iPz3950w2sUwjSbo5K7WzRlR18qzq+UUIDyuTK6Dgf46vNi1qZJuzL0pBhouU7VsiSd6K/UMe2u88ohh3Yr59bHGMPm5mJ5RD5Q5uWfVUSLNG+NuQ5Ft7TAuRFnmN3wNiXVoR0aGBbTAE67qsjRpjgAvtcxnynBWeVar+q/XK0j532WkSE+7NMVz3rZyKqyawftp8Vp6XnwFR+WGp8cmte2PFm3/CcP6E2UeNsYGo6XnFy5j26GqvWaNENDHcHm0CZwG2GC8nK5sQ96GS6xiff21q/I0sdCoa5caLAZYd6xTOC6NXfLrhU5mhgN0E0GBlGffkWoPB+LIfwzH9CKY6tbx6ktydgMQuW4dYkOUPUrWMXlm6NXZzMy6+8kBSNa+41cdfJoZD//QmLbTPo5968WfA5EYLN1qweShjq86Z/4SSm3qW3empDEoZ/DWglwMeEW5P1E7dXyLifwrOCDv+xuhu+GgqLLp7SAfXH83jInKLcNG+R0r3O8qP6nQPtBJyRustIyjv6oHlI5N4Gmy12kMz27qgSz3CrKu8bhja13NShWBTS1xhqBDvx7KwX9VXBECF+RjVUIRjp5pjE5e9ugnHp3s5bdrJo1f25CPlyP/hJdcz+JR41grQbo09Z9L+FYsv5NLU7w9vIX6hoVsGsFkJFEd9uyePZvAW3qSVYJHInLx1oazSMksho2rssz9OqhBiczCdmSsurIU1hBsVlH/9VqCk38oz4aJ9myyBdm0whtqMCyP+cq9jGT58ncj9LvfeJkF+6bop15XPvC75VtxK1vjbUgsw3Xcn9GthwHWnSpHBEfS3473yIPBq2XBEAd3x9oGWefhqHyjz45wrSnrlYvqk9vYI69imTR+ytzDorFhVWlRd1eQ/o00BqUUn/5eDs/7m+ANb+lhhYFqDrMs3juIoMTSvI3V3guzynAyX316U4hgL8gOOx5pjIEi5kvJuoKX44oxIKoAfrPz8e2vFhxYy85huTR+bccVxF9qhCfkehaP+2pa7is4ueE8XsgWT60a4Y2/2RkNTL8B7m+FlZOb4jkRPEpjmz7dUYLAhUVwCxfB1pZzRicF9WxHt4q61GkNeTeKQIzIEjdyM6ZbibM73KW/x0+ZP4ssVf9a4Fhebeehjugkd+kfR5a5rA0hsDIosYPnQ37oa+7hdY/pGbRFNKi7c+ewale5fOnpxdGt8NGzbfDcaOlho17aqYbFvUnllue9ol6OMqsx2htGn98sVs3QabADYqJaI2OaLWIeaYInxEo7WXgFL3xS++Dkol0X8U/pMqNtY3w+ywlvyPUsHv1r6Lr45SxeSFDq5YkhLfCE843u5mgMO/fWeON1B5wIb464EU0R5gw4XVYGo7+0Tb0Te33b0a2iLr2jNeQd5my4ZEpUMwZYd6x70HGA+JO0D0fNnJgfTP5B/H8PenWtodvEUQRpOiDroHTbgCpKDmHdhx/igx+Ub7i5usszw74jZmZ2KBWbxR/X3t1q7k27pdnhnu7iz44d2FWgpGjlmusu8wqWy08a4f52RiFeWTmMvxAoc2iM7vJeoRwHsqp8Y+rQaTw9OxdPG77x52RVMc7nlyz5SYXcHXlK3m+UQU2u7dQenOOXkW5y8LqC9INqj4CYXpUrjaIdleOGhd9ZZ/HpqtPicRZH0RR2HewwcHAbfDRbhzekK0aivjam1/yzLxWXQls2hqvxVabSagJL6Rt8XypjhJy62OCDgZbedkArF7BNXubT2JYJ2NzVAt4PtsaLL4sgU42avv25RFnfdWlHtwwbtG+rPNso2rPJFlRWhE+lNjo7H9uknlOnyraf+EuVJSq8hEQ1uO7etu6nSXRnYoB1J7lsfKhyxNCnHoWNfiU++FIZiF7h1Fp88KkIjLwm4DF1UKZZjbtiyJh7xJ7rY3yUbHrwz1r/IcIWLkVRc+Ww7xgwAo/pSrDiw5U4ZnzZ8coprPnXImTBC88Oq2lmFhBF0PZg7IhO3aWd6Q/YdUBJUZRg31ZpXJSxjhgaLAVCP+KDj5NQZLKMRdj1YThW/GImQDLHZD1pUHcVgVA5kg+rAcLlYqTElmC18qqSVXMMVAdOf7rhHFIMPwos9V5svozEwnIU2jdWxmA5NcPo+6Qn5XgvtgAnDVdO8s/ii+1lct726oBsJ++mGCftbYovI3rtOfUHfaV7KhVisTwCGRjXt1nF7ROc2qrzKLyMTYZ6u6zHtg2l6rivayDKoRwiRRCZabROWgEnUy7jrZQSLP/JKJC6cAV/qtnudzI6uOYXYpUITDYaXTp0dVYDyfzLSD6j1l2hOJD/YLziDEqQ8vVFREu3A2jeBJ8/06oePZzXqjFwRlrmy3hJrO+KH1ouK60Y8O/kaFjfdWhHN4N0/7EEESxuKDT6wejGImBUx5gdvoRPU9VtS8q74SIWizaaeKkRnO6SEivb/qot57ExW23QUruLvYRV0nOxngZ25UAqsgwDrDuBczf0kr4wt/pdzJhT2atkN+w1zH+qI/bNeQzDp7+LFet3YM2HoRg+JBzbMQDvLhhzdY+CCRv0enEeJnY8js/GPYyQ11diXbwIzl56GsNf2QGbYe/gWT/1kNH6L/jnByPgnvouhj8Wiqgv12P71x9ixmND8Go88PB78zC24gafddURvR4Vf5Lexauvi+X7MrVe39Yzp9cjU+COU/hg3FhESD1yH4o6DOqLoCVVglLB8YkIzB9mh6xlY/F/4yPx2dc7sO5Lkf+xvnhm4T6cOl1LgFXNerrmuqsIhIDlceeUgcmvFiHwf+UVe4A/zxqCusbwHN4MYdLvwl24jMDIfPj98094RerxsjRGSBxgogKlNyW2GBjUFKNFDJWbfQl+r/6JASJvu3dL8C8RNEiDtV98SO3GsW+FN8YqB7pte/XweEXKmw+PxaXywG5vdxtMN+SVdG2KyfIX1crx1pKzapnPIfhweUUQVm8OTdFPPqCKIHKNNG31NwlbtsRzjyi/1SfVk1+E1LuRiwGzS+RvQErL83jFwVWPjSsu4mURmExcdaHi/kdOvmogWVaGiVH5SrlnF+OtM+I9OUcZCtXABYfO49n9as9WyRVEv6/Mr/Kh9qxcV83kdfiEKHOuCBQ9wtV5v14o6lq8LY0JG6x+Y7BO7egmOHwBT8eJYHHHRXySajTG4f4WiPCW1ms5or8sFGUWbe/VQgxIkC53NkLYyBbqFy+kMXgt8JGLeFos1t+80/AS7dlPaneHpGVshLefaVnlSxpE1WNTuSN0xcSPX8XDdsexbtkirPjFMJjHEUPe+QobpEDq0FpETJ+IV5fuho0IFGK3f4aRpncxME/nhfB1mzF/jBeyNkZixsRwrEhzxMgF6/DfBY/C1ehkz/GRKMRuEMGA6yGseT0UIa8sxS7dCETGbseypyyZWXXsMGTmxxjrBez6chE+SzpleingWnSdgv98+Q8MuesgVixchI9W7kBJ7zexZXMUHlazVGh8Dx5bsF3U5wT0/SMOUa9MxIx34nDMdQq+3LUZ4X61DXGvbj1da92JQOj5logTZ+fe6vCRTnc1xkeTW+BtNTDbqN5OQWZrhxf/2RJf9bXCQBEfnxSVmSvd2bu3DZJebQPDN91lzq3x/j91+KynMm3pcrN0p+7nBuiwc0Zrk8HaNp5tsHaqDcJcG6GTSJfySnfkDgvUYeWkVqaBk5UIdqY3wxsib3s1Sbo79levNKv4Cnz9NcfoEBt5ULdMLJtyo9HGaD+4DXZOVsqIC+VyL1yJbSO5d+2HF42Xxwaduihl69exCSru3iACybdfNSq3yD+wS1PsmGFTcTk1PVPtzRJBm3rVCdKNQaV5mT5EMFbRE3MdiXX40evqOhRBiDzvK40w7D6pvu8yGhNWx3Z0o7VrglFS7N/ECt1drZU0mQ28R9+FH8SZwDgRWDtdFm1PCupFe4oJtceLnkb9hlY6PDFDLKNo+9KdKHJFGz0prUO1Lsbdb+bWGUTV4E/lEBEREWms4nyMiIiIiLTBAIuIiIhIYwywiIiIiDTGAIuIiIhIYwywiIiIiDTGAIuIiIhIYwywiIiIiDTGAIuIiIhIYwywiIiIiDTGAIuIiIhIYwywiIiIiDTGAIuIiIhIYwywiIiIiDTGAIuIiIhIYwywiIiIiDTGAIuIiIhIYwywiIiIiDTGAIuIiIhIYwywiIiIiDTGAIuIiIhIYwywiIiIiDTGAIuIiIhIYwywiIiIiDTGAIuIiIhIYwywiIiIiDTGAIuIiIhIYwywiIiIiDTGAIuIiIhIYwywiIiIiDTGAIuIiIhIYwywiIiIiDTGAIuIiIhIYwywiIiIiDTGAIuIiIhIYwywiIiIiDTGAIuIiIhIYwywiIiIiDTGAIuIiIhIYwywiIiIiDTGAIuIiIhIYwywiIiIiDTGAIuIiIhIYwywiIiIiDTGAIuIiIhIYwywiIiIiDTGAIuIiIhIYwywiIiIiDTWqFxQn9/Wzp27gMKic7hYcgkNZJGIiIjuCI0aNUIzm6awt2uJli2bq6m3twYRYOWfLkBx8UW0bm2P5jpbeUURERHR7UEKRS7oi1FQUAhb22ZwaNNafef2ddsHWFLP1dnCItzTzpmBFRER0W1MCklO/Z6DVvZ2t31P1m0/Bku6LCj1XDG4IiIiur1Jx3LpmC4d2293t32AJY25ki4LEhER0e1POqZLx/bb3W0fYEndiey9IiIiahikY/ptPnpJxts0EBEREWmMARYRERGRxhhgEREREWmMARYRERGRxhhgEREREWmMARYRERGRxhhgEREREWmMARYRERGRxhhgEREREWmMARYRERGRxhhgEREREWmMARYRERGRxhhgEREREWmMARYRERGRxhhgEREREWmMARYRERGRxhhgEREREWmMARYRERGRxhhgEREREWmMARYRERGRxhhgEREREWmMAdZtpxQZS0Mx7tlQxB5Vk4SMxc+LtEjE56gJt7QcxM+SyrsEGWoKERFRQ8IAy5x9S8TBXwoAangsTlUz32jWsLYRDysHtGqpJhEREdEthQFWDXSungjw623+0cVBzXXjuY+JxmdLwhHgrCYQERHRLYUBVg1cvIMQPCHE/GOAq5qLiIiIyFSjckF9fls6ejwTnTp2UF9pRLpEuCgV7o9HYNbwWrqJDHmfnIlg661Y/X06Ms6XwtrGAd5Dx2PscDfocvdi9ZJViP+tGOId2N/riwmTx6BH1U6w/HTEfx2HuP1ZKCyFmIYd3H2eQsiY3nC0VvMI0nir6GRnBM+JqOjFMpdWLVGe2C/iEH88H/oyMZ8WrvD76yiMGizKqmZRxklFIibHC6ERbtj1rzjsLihFwLRPENxTzWIsZxPmzIpD6fBwvHD3Tixbs0euB1jbwsN3NCb/vTfsK8L5ymmH/WsQsj/7ArEHlbLo2nlh7LPj0cfVaIElpflIW/MFViedQHaJeC1Nt+cwjBo7CB0qC22y7qY5bcXi/xiVo18Ipv3NE7oqpxX6o2K9rdmIpIr144mgkcHw72Sr5iAiohvpuhzbb7DGbwrq89vSmYJCtLmrlfpKI3+k4Lu9ObirywD4399CTayGmvfckV1IyNKhs6cb3F3vQunvv+HgoV04kpeLhJjv8Wvr7vDt4gpX20L8euIYEnfnovPDXnBsok7ndxGgvLESO3J18Ap4BE8P7Arn4hwkJf8X8WmN4TegE5qrWfOTv0didgv0HDgAbmrxzKWZU3poNd6K+g57ipqIwOcR/NXHGda5GUj833/xU3Y79PdpK0IMyXn8um0n0s4XYv/eNJy61AJt7Gxw3wOD0fVuOYOp88eQsO0Ifj32X+w4UIi7u3rC89670fJsFg4eTUX80Zbo3/deNFMyV0w7/b87kV7uBr9uHeDWukx8/hj2iPrsPNC7sm5KjiD2zXfw74Pn0dLNG48P9kGH8tPY8/NexP83G539RV5DPKauj4un9mBzcr5pOY7sRWppTwR0tVczi+BKBGSvzd+GX5t1wZBB/4cHRXD658E07EhIwLkOA9HTubGak4iIbpTrcmy/wXiJUCOlTkMRNXcmQuRLiFMRGRUED5F+LGkvMCwCc8MnyZcWQ8KiETnYQcQYe7EzuVT5sHAsYRcK7V0xamYEJj81CD18B+HR6RGYFWCH0qwtiD+kZrwWZSJQWbITmXBDyOxohE4YCv/hozB5TjTCfGxRmLwEK5Iqy6QohsvAcHz2cTTmzo1GUHc1uTo6L0x7V0x7ilQPkxA6NwLBrqJ+Dq/DpgNqngrFcBwQjkWRU5XLrmJ55brRpyJpv5pFOLbmU6zPBXqMfANRYSEIGDwUQSLvgilesD+finlL96JqqfXoYlqO2WPQR7T27P/tQbaaB/pErFicitJeIVjw1lQEDR+EgDFi3X0QAn9dMeJXxVXmJSIiqgMGWDU49l2kxd8gdO/jC0fj2mztCR/5Up0nhg41vWbn0kkZv5VfcFr+K3EfPVsEMOEY4qYmqDp07ij+L0bpReX1Nfl5J+LPi/n/ZRT8TS5P2sJj5DA5INwtAj29kqjyQmBgHcabdemNHpUdRKKFOSPgyX7QiWVISD2iJhpcPW1D3WTnqvebKBPB1k/FgMMgjJKCLyO6XqMQdK8I3vbvQEqhmqjqMCDQtBy6jujkJP6KOjdk1Sftwu4yOwwd0tv0sqGuN/y6ir/5J3CyynSJiIgswQCrBtV+i7BO3yC0hs5GfVqb3FTEL47CzKlGwdwi7W4HkZf9h9zT46EGMSYMAeHx48hUUipYX2sr6dYZPuKP/tcTFcGNQa3TFoFWpjROrFNnuKhJlezg8YBU6BM4+puSYmBtuLxYg8yjJ8T/RYiNMqpv9RGdLOXQ44KI7YiIiOqKAVYNqv0W4fX4BqE0BmvWEqw+ao0+j4cgLHw2Fn0QjUVjPdUM1y7/lNQr5AwXc2OoDMouq080ZNVEGdclortLckIdZGfhmPjT4e5agtor6t86c8WjYp2GTjL3CEKP1mo2IiKiOmCAdUsowu6VcSKQ8MTk2TMRNLg3PNwcoLO3g65FlW/TXQOHe6Tenhxk/6m8rqq0TH2itRI9Lkh/xaI0lRPqwMUV7uJP5p/5yuuqLl9rQFiKVvf1Rg9fcw9POFra+0hERGSEAdYt4SSOHhd/nNzQ3viWA0JpcdXh2/Xn6KJ8QzDjaJaSYKwgHftzxd9OnaH5F2N/+RVp4o/uPjcYD4uyiJMzOohWWnr0iJkB50XISJcCLzd0koaq1ZF9azvxfw6SDxQpCURERBphgHVLcICLNAA7JxVpUpBjULgXq9emqy808EB/BLQAsn+Mw26TwVDFyFizUf5dwD7+fY3uhVUPh/ciw3iUfFkO4r9JhB628PfqrCbWgZUX/B6yBfK3Ii7BNBDS71uN2N8A654D4F3nyA1w6T9A7h3LWL8aaVUGh+mTlmHh1yeqDPgnIiKyDAOsGmSnxCJm6TLzjx1meoHqzRk+D7vBGlmIiQjDvEVi+gsiMWXmMiSUKJcIM7M1+BVnq84ImtQfHZCOxa9GYvHKTdi9JRaLZ4UhOrkY9j6TMNbvGi9J6lMx7yUx7a+3Ik2a9htRiBFVZe8TjMDabvFQDfeRz+FREYDuXjELEQtWIz5hK9aL+pm+KBWFLbwQOqG3MsarrpyH4rknXWEtldmoPpZFhWH60r04ln9aBIhqXiIiojpggFUDfVY64pP2mn8crmZMUD3ZB8zE+5P6wcOmGGn79iLhl8tw/8tULJjiK/coZZ76Q8l4jay7jkLknBA8eu9lpCXEYfGarUg574whY8PxzmSva+u9kvQKQdTYjij8KQ7zxLR3n24i30H9rUnXMG0bERhGzkboAFeU/rITMStiEXu4EO79xiAqahI8rqHQjsPCseDlIPi3K0TKDqU+kk/bI2DCbCyYXOX2DURERBbiT+WQNtSfyjnmMwnLRaBGRERUXw3h2M7zcyIiIiKNMcAiIiIi0hgDLCIiIiKNcQwWERER3VI4BouIiIiIrsIAi4iIiEhjDLCIiIiINMYAi4iIiEhjDLCIiIiINMYAi4iIiEhjDLCIiIiINMYAi4iIiEhjDLCIiIiINMYAi4iIiEhjDLCIiIiINMYAi4iIiEhjDLCIiIiINMYAi4iIiEhjDLCIiIiINMYAi4iIiEhjDLCIiIiINMYAi4iIiEhjt32A1ahRI5SXl6uviIiI6HYmHdOlY/vt7rYPsJrZNMUFfbH6ioiIiG5n0jFdOrbf7m77AMveriUKCgrZi0VERHSbk47l0jFdOrbf7hqJhbntI5P80wUoLr6I1q3t0Vxn2yC6FomIiO4UUigi9VxJwZWtbTM4tGmtvnP7ahABluTcuQsoLDqHiyWX2JtFRER0G5E6RqTLglLPVcuWzdXU21uDCbCIiIiIbhW8TQMRERGRxhhgEREREWmMARYRERGRxhhgEREREWmMARYRERGRxhhgEREREWmMARYRERGRxhhgEREREWmMARYRERGRxhhgEREREWmMARYRERGRxhhgEREREWmMARYRERGRxhhgEREREWmMARYRERGRxhhgUf2UlKDowiX1hZB+Gu1e/hPt3itArppERER0p2pULqjPb1spMX8icL/6woxhj7TEZ4N16iu6dkX41yvFiC4D3ph0N567XyRJAdbyy4BTU6S+0hpOUrayizgafx7v/XQFGy+I1yKcH3h/U7wx0g6dWjaWchARETVIDaoHy8mmEfrZX/1wtVUz3IJyt+QqPT8xRWrK7aAJ3NtJf6zg2kpJudolpK8pwoAflODKW6wHb9Hath2+hAHvn0W6CM6IiIgaqgbVg3U79lRJAZbXD2IV9LTF78F2auptqGoPVslZvPXPEnyKRnh/WhuM7tAYKDuH5W/r8c9CICzkbrzYVf0sERFRA3OHjcG6gqJjZ/GvBbnwk3qNxCNwwWkk5ovAoEIR/iW/l4tvU0WQMFt6fhop6rs4U4hPDZ9/5U+8sKYQ6T8ovVATt+jVTIJ0eSzhNF6OUObT7tVcvCzy5lbMSpmPHFxJ9hfL+f6VrrysTsmvNZff0CM28YdzSFmTi8BXlXwD3hfLcOYKkC0+/76Yr/R5tUxFJr1Joo5ST+OfUWoeM/MwqaPqBlxZ6zAjwh4Z4iEHVxIrHbq7Kk//PHNReUJERNQA3VEBVkn6WYxZXILorHI4SpcPWwJZWZfx9Htn8OkhowHbsnK8taoEnxaqLyXFIrBYcBFvic+fbCJ9vhHSUy4iOL5qJ2AJUr4swoC4y1hVol6qbFyOVXsv4pG3TyO9RMrTGJ7eTfCii/wB4C4rvCFee9qrr80oOXQaIz42V/4CbDMup5Acr8ezaUCz5o3QSazlozmX5UDp6fklWHVOpInPt7+slOklkdcgd9tp9P/yMpafbYQAT1G+Do2qnUeNrJrCrmUz8bBRE4Tic/j+kPSkETzdmslJREREDdGdE2BJl6fWXEaKOLiHjWuFuNed8FWEA9Y90ghOZSKY+u48TqpZDVy72CBpdhv8/l4reIvXJ+MvIvoC4OTSFElR4vNiGjsibTG+6hivw+cRvl8EXc2bIC5CyffV7Jb4SARTuecuI3qLNOK7OQaOboPx3Rspn3G1wXPi9UC1h+dqF/DNd2bK7y8+X1aG6B/PqflUzk2xbrZaxleaYrSUdqEcNn11SIpU0n8IVFb/xgMl6jf/zuHb7eXieSO8/XwbvD+uDcKm2eOjLuItMY9Ve4x66OpKCk7fEwFrGeD9oC1GGwJLIiKiBqhBBVgbfzgnX9IyeRgGjx++hMXF4q+DNR73NPSqNEb7AFtMlgKkM5eRmKmkKhph/LBWaG/bRNSSdIlLj/RflJ6qUQ/bob2h5mzt0M9dfa5KT70M6UrfsL628DYEX1Y6PDGsCTzF022pJVcFc7XKLMG3Z8Rf+yam5fe1xjDxLP34ZZNp+nS3qSyjgw36OUhPGuHJPi3lJInd/U3kz6Li6l9LPDf7bvz+vhPG3Wf4lp8NOnVQgsCNOcaXCeugTI9vPylGtIgB+4kKWTuisgxEREQNUYMKsMx+i7C5Ehzk/n5F6aVpJ4ISOUUlgicn+XhfjrwqnUCmtXMZx3Kkv41wv5hG9fQ4mqU8696uyoD7u6yUeReKeckJdXCuHInS38LSivFX8uP9S9gopeeX1TxNw7IYL5O5tW8YOxZZOQarYpxYPZWk6PFCtlg/XWwQM9pOhGxEREQNW4MKsHwGtFAuxxk/nmxgvSW2jfCidxN5vJbpozEc1Sz1V4LE5YXy2LFEWzHNEc3w1TPN8Jmnehmznv48o4yi7+fWlMEVERHdERpUgFUTp3aNlZtf/qH2ZFUQr+Weq0ZwrDEWawJ3Z+lvObJyr8gp5unQSR1HdeCPKmOWzpYpl/HsxbzkhDpoCvnyonRZ8K8j28jjtUwfrUx75uojX49V8iD0xvjo5TZ44kF79POyh490z6tr0P4RJ/z+/t34aCBv9kpERHeGOybAQkdrZTB6bilWK1/jE66g6H8lytisu5qgXwcl1TwdPO9XenK++LEIJw23NiguQuIx9bmqU3dlrNXGn4qRIk1bUnYR2xKUsVkDvWyuDoau1HIZzr0pnpTKX3wZi+VB8qoyPbatyse2nJqCPguJZVJqphyFhiq6fAGJB67tEiEul6DoXAlKTG4HQURE1HDdOQGWjR2eG9kE3iJ4iF5+FoGzc/F0ZD76r72CXKtGeOPxFrX2ALUPaIaw5iJGy76Ex14XnxfTCIwslr9ZaMzGswWieopg7MJl8b6S7+nXCxF8GHBq2QRhg8VEVE5t1Z619ItymZaLPGZZtcQ4ufzAt1vOwy9CnX/4OQSnXME3+zW4r5STDZ6Qv91XhmC13IGzzsvjp65F+tqz8IgUdR5bdZAbERFRw3TnBFiCjWcrrJzcFM85NUJeYTkSxfHe1bUJvnrlLjzXtamaqwa2dnjxZR3edm2EZiXi8yKwut9LGqOkvl/BBt7P2GHHI40xzEbkk+Z1pRFG926GH/7ZBhVfApSIYCymr3KvqpRz5WoPknk2nm2wNtQGb4j5S7dckKZbZGeFt0e3xEePVAZt9afDsOd1+KiLKE+ZVD/lsHdvih0jmlRzedUyTm2Vwf3dHWv6cgAREVHD0SB+KueGKrsiwlLjQOEitn1ciOBfgedGtsYbvS0I1IiIiKhBu6N6sK6ZdD+nzwuwMdvoflDZeqwSwZVUlT73M7giIiIi9mDVzeHTeHrZZSRKdyN3bQwflGGT9LM54q1+fXUN75YQREREVC8MsOoqvxDL15RgeWY5jopAq1PLRhg9vAWe8+YtCIiIiEjBAIuIiIhIYxyDRURERKQxBlhEREREGmOARURERKQxBlhEREREGmOARURERKQxBlhEREREGmOARURERKQxBlhEREREGmOARURERKQxBlhEREREGmOARURERKQxBlhEREREGmOARURERKQxBlhEREREGmOARURERKQxBlhEREREGmOARURERKQxBlhEREREGmOARURERKQxBlhEREREGmOARURERKQxBlhEREREGmOARURERKQxBlhEREREGmOARURERKQxBlhEREREGmOARURERKQxBlhEREREGmOARURERKQxBlhEREREGmOARURERKQxBlhEREREGmOARURERKQxBlhEREREGmOARURERKQxBlhEREREGmOARURERKQxBlhEREREGmOARURERKQxBlhEREREGmOARURERKQxBlhEREREGmOARURERKQxBlhEREREGmOARURERKQxBlhEREREGmOARURERKQxBlhEREREGmOARURERKQxBlhEREREGmOARURERKQxBlhEREREGmOARURERKQxBlhEREREGmOARURERKQxBlhEREREGmOARURERKQxBlhEREREGmOARURERKQxBlhEREREGmOARURERKQxBli3k4K9WDYrDPM256gJVD85iJ/1PMbN2oQ8NeXGKULK4kjMjN5aMe+MxaIszy5Bhvoa+5aI188jZp/6ul5SESOmMW5xqvqa6ObI/CYKM2etREaJmqBJ+66BhdPP2xAp8kUinrtTuk5u+wBL2UikA1TNj+u2Md9QepzNLULhxVL19a1Lf3grls0JxUS1/ifOiMS8lXuRd+sX/borLczB2UI9WBV0Jyg9n4+802zvdOe57QOsVl5BCJ0UUvEI6WUnUu3g/1RlmvTwv0/Jf9swdxbWuj9Cl3yCyMdd1YRbU96GKEx/PxZJFzsicKRU/2MwqgtwLGEZwqM2Ia9MzXhHskOfsE/wWVQgXNQUoobMfew8LP9kEnrYqAlEd4jbPsCybueJHr69Kx4e7XUiVYcOD1SmSY8OrZX8dJ1lxeLD77Jg3SsEC96aikcHS/XfDwGTI/D+ZC/osuLw4TdZamYiIqKGqVG5oD5vEKRLhjO/A4LnRCDAWU2sUIzMLTFY/X06Ms6XiujMFh6+oxEypjccrdUs1cndi9VLViH+t2KUwhr293pi9N/Ho4+r0Qfz9yJ2aRzij+dDXybCPAdPBI0LRkAXqVdNIo39iUQMAhH5d2DT0k1IyS9FqbUd+vz1OYwd7gZdzibMmRWHY+onFF4I+3wSPNT38HgEZg2XFk4aZ7ME8T4imOl1BIv/s0deLmsbZwT8fSpG+TrIn66uTqSxP9HJ6rTVNBQeQfzylYg9KC2DtJy+mDB5DHook6rVsRWhmJNgX03952BzeCRWYyjmRgXCUU2tvd5UFubTH92EFUs2YXeBVBcO8B46Hg+cmovFpwIxd85QMd/K9aC8VtVl2cvSsXrGx4jvORWfTfBUE4HsNWEI39Ie0z6eCm/DGXvhTsx7aTX08nrDVfO+aj1IvZeLUhEw5RME95ISzCgrQubGGHy6KR3ZJaIpi+X08AvEhL/1hr182mRZ25CV5iNtzRdYnXSiYlpSncntUc5gqK+hCH04C6u/FvNsY1R3xtuGlTVcug3FcxOHooPyYVNi2SaKZfMYHY3QAKP1dmglpsxLRIeR0QgbLKVbsK1WU0+m7b2Wshup+FxYMLDxi4p24NL96uWRLoGv/nojkir2B1XaiqFsY2fCJbVyWvb39sXkaaPgUSrqbHEtdVaXeq1OLW3asMyjpg3D2fXG8wrEC1MGodVvYluq2E8p62Dy3w1tTKi17dSzfYtazUuKRcy6XciQ5l3d8peJ+f/7YyxOyqlcPh895n1dZfr6E4j/7FOsPlBUMa1Apz1YHG9hO7Fk32DmGBE0Mhj+nWzVDIIleajBuO17sCxXioyl/0TEmnToewbKlw0n/7UL9EkWXLb6XQpsliFe74lg+ZJjIHz0qVg8ey7if1fzSMFP+DJszm2DwDFSniAEtDiOmPffRMy+YjWTqmgL5s3fg1YBwZgm8j3arhS7v/sIsfvEgcRpEEI/iMaiscpBu89Y8fyD4MoAyJzDqzBnTT56PhmM0LGB8LMXgcwScfCv6+BNsUwxEfOx+k9XBMnLIC1nIuaFzxXBipqnRvnI/FUsa2tPeFwVXEmcMSTqEyw3Dq4srTdL84l1NW9uHFLK3DBqbAimjeyLprvmY2ltY/DquuxWnujaRbSqw0eQrSZJgUiG2IED6Th0UEmRHTmCNNihZ1ezlVIvx1a+iYjvjqPtw2NEWUMw4eE2yNyxDC/P3YlCNY+strZRJg4sUa9jXqIePR6XljtEPiilfDcX8zZWaUC5m7Dw65Nw6N4bAb1c0VxKU7eNJPgq28aY/mj7axwiwlfimLlt6oG+CBAHyLTkVOjVJEn2gQPitRv6+0rB1TVsq9UxV3azChH38Xwk2PXH5GdDEDLAGRcOxCF6RaoolUIvAoTX3o9Fhq4fJkjLPLY/3PNFW5mzrHIgtyphpem08NtORL/zuqifVci8d5jY/kW6/9XzqHO9mmNxm85B7OKvkdclSJRnDIIfsEfegVjMiXgdr83dhaYPjVTSuzfHscRlWGhoF3VpO3WUt2EuwpfuQmHnQLmOQkc8AOuDcZgzV6x/NY8UhGcsiRLzPw1HP2moSDCC7j2JpSK4MiGVc+5cxIhtsscQsb08OxIB1ruw1NwO0lw7saQeC8RJlJljxLLof2L1oTrkoQblzgmwsuIQk1QM9+HhiBw/SL5s2Gf4JISpl62WxUsHRnNKkfJNHI4180JoRAj85UuOg8RZz1QMaSbOdNZLG7PIs1bJM232DAzxV/IEhb+CYNdiceYTa7pTvOiAwPAIjJIvn4l8M4PQR+wsElKPiDViDZ29HXQtlNP05i3Ec/vazm66IMQwX/+hCHl2kAhgcpC0L1993xLioLYiBvFlYhlmTUKAugzBs8aIsp3AivWibLUqgv68+GOjE+dmlrC03uqQT1pX8MRk4/qYMwOBd0nvV6d+y+7e2U3sNI8gI1dNKEhHco4t7FuIA+ueyp38scOHAV13eIjs2khH0k8iqOw1GtOe6ifKKtryUzPkHqHSo4lINpRHVkvbOLwD8eftMGSyoT32hv+EmQi+V5R7e6JR8ChxxahZ0QidIg6kT3pCJ/VsfSLq22koZoWPUrYNf3GQfnEQXM4nIm67mW1KBKY+XqI9H003CkaykJYq8nbyRQ976WV9t9WaVC17dYrhOKhyvv5jZmJsdymoSlV7lfOR9t/jaNopCK+Eiu3WsMwT+kF3fi92JleESLIOw4ynFa702uXnw3rYKwgbU9086lGvV6lLm7aF3/g31bbUDwFTwjFBnDzocy+g57PhCBluSB+PwNaiXaSkKkF8ndpOXRzB7p8K0cp/UkXd9RgsBVmuKM3agd0n1GxH12FxcjFcBs8wqeN3xnZWMyj0CauxOkucrP7deBlnY5ZxD2qFqu3EsnosTEpEWpkDgqYaHSNEHm/RnuKT0i3OQw3LHRNgZe/aIzZ4Nwx62LQXQddrEAaJnUaG2LkZn1FXKNmDvftFPp/+8DAepCkOFENnhGBav7YoNcrTw3jPbeUM/0Ge0p4TyeIYW8HJCz3aqc8lNh1xr5PYJZaa7pwt1qU3PIzne297pcer7LL80iJlIjjYV3z1MojA4IGOYhF+OWHBLQ0Kcdaini6VpfVmcf2m45DIhwd84W2Szw3uYqdfrXouu66bJ9xFcHD0qLLepANkRut+mPyoG0oPHaw4WGb+Ugzrrt1EXq3Yw1EKGLOPI9Oou6rD6Ggs/zwcAaItVaitbXQdhai50RjVU3mpsIOjdOmj4LRpb1jVdpuTiqQcoMfDA+BovCdx85TrMe3ocTXBlPuDvcSBKx17DcFIjqh/Ee959BIBlHhZ7221JlXLXi1n+PkYz9ca7TuIyqjYlhzQZ3o05oZJgaoRxzbylxbyRZ0Z69C+yjK0lJbQAT69q8yjo3htmEc969VEndq0vSin8UmccpIgBec+PsbpYjsSnxUxBy5JL+vSduqkMx59V9Sx2otvYN9GmnARzp5VXucdPCjm4YyA/qZnLroWxgssgr1DR1Bq5YX+fqYnqsq6qKJqO7GwHnWt7cVavIDfDhud1Or6Ydrnn1QMIbAkDzUsd0yAVVggnfXZw146Qzah7jR+zzJ/xiU+J20OLndd9UHYu4mzkO7OsK4hj3VHMX1xhpL9R81nndZargmrJhb2IBnJFYFAmdhhJMw3ub3FuGfDsPiomqdW9mhl5ssEyn2ejB/qPZ8srTdL8+WIZRBp7u3r+C3L+i67c2f0FMubclg6ixVnuuknxH7XEx5S4KU/gAzpTLvkOI6Kg6W3SNeOK/wnDILH6Z2IeOl5THl1LpZ9nYjMAgsCdHNto/AIEhZHYebUymWPTlbfq0l2lhxEpq0KM6oz6TEfm2uKgLr2hr84WO1O3iMdq6E/mC6m4yoCG6VHod7b6vXSpIn6xEAaH7Qa82ZV3oZk3FXjJmsi1kFj9ak59a1XY5pszxbsl+rbdmojjTHcsgTRL71YWceLTC/95edIe4W2cDGNYavIQZ7UWJxc4VCffayF9Wj94EhM7mWNlFWvY9zzoYhesBrx+3JQKvesKyzJQw3LHRNg1eS6NvArpfJB5Hbh2Mv0thcVj5FeaKXmqZ50aVP8KTG9543LXwzTCYK/mQDMLEvrTcP6rfuyu8Gju60yDqvkZ+w9aAt/r84i8PKCn3MREvaKCEu8lyLyPeBZ55C3RrpOQQj71zxEhQZhaHvpksxKRMx8CRFrxNm6msci+r1Y/Op8xJx0xqNTw7FIGv8nHpNNeiVq5hFgps6kx1+kaMiczvDvJ4Kpgz8jraQIacminu71lYPV2twKB6Psr99C+NI9sH5gNGZFKfW16OVB6KC+r5W61+vVrm17roUGbce8YqR8PAsRa7PgMmQqItXpGsal3gy11qOVA7yniDK+OxOhf/WF/bk9WL0oElNmzsduw1AvS/JQg3LHBFj2raWz40IUXtVvfQKZv4o/7VzN35fIyUFOL7xg5tRRL405EoczMW2p8zr7zNWd4qW/ZSETtnBpa+56/y1EXYYLts7yWIarHlJPnZKzBg7w6CamUvAzUgzjJAS5p0+ejic6GF9mtbTeLM3n7IoOokVnnvpDfddC17Ds7p5dYC2Nw4pPFYFUF/TsJqU6w+MBB+QdEMGVCLBKnT3R8erOt/orLYa+sEgEUmK5uw7Co1NmImphNEJ7NRFn/bFIMBmDVbPCHVuwu9QZo14MgX9XV2X8n3jYWxIPtmqjXCZz6Gy+3tyqb/MuvX3hWJaOvT/twc9HRTDxoDjgqO/Ve1u9IdIR/2M+4BOMaU/1Rgcnpb50rSwdd2iBa6jXCppszzW7prZTk9wd2LS/FO6BUxE8uDNc1OkaxqUaODhLS5iP7BrbuzMcpcaS+4fcC15nFtZj6XnlWGDt4IYew0dh8qx5+CxiKDoUHsHS75XxVZbkoYbljgmwXPr6ip3yCWzdbnqqoN+3FVsLKsd/XMWqs/xtsbzEXaYD1ctOYP1bYZj+xc8otfFFb3HWpk/eiTTjOKwsBwlbxYaj6wUfMY2bxdGprfg/B9km11WKkGe8x7Hpjgekga1Jm646QOsP7EXG1bGNWS4Bg9DDKh9xMXHIrq0rxdJ6s7h+xbrqLnZk+3YhxSTfCRz7TX1uzrUse7du8EYWYjcfRql47q5uUS69HoBjzi7EphbBsXtn0/E61+poLF5+KQzzdhhddrayg0dPqWdDVHodenkulUkr6TJKryivZaJeM0+pz2vi5oU+LYCM7+NwrMq6ztuzt+b17+aLAHHkSvk6TgSmlZcHJRZvq3c7y71Gmdmm+QrzLGys9aLUb2mV8Y36kxpetryWejXQaHuuyTW1nZqo7be0yhDSvJOmJ06O3g+IdpKFpF1V1v9p01DKw8sT1iKYT9pj+m1ui9qJRfVYhJSPwzAlfI3pMcLVU+6VVcbWWpKHGpo75xKhayCC/WxxbEMUIr7YijSxo9q9YQmiF6dCL94LMfuNEokd+owOhPvFRETPWoYE8bm0PVux+o35iD3jilFP9hZnMNbwHiHlScXC1+djc4KSJzbqPcRk2SJgXFDFgddi6qDZ5MRNYlrpyKvy9e866Sl22GL+8SvUsiVswrJZsxBzUn1fpi6nOLAti4pC7BZpGfYiYWUUXluwDLHbs+RLT9J9c0x+N6+q1v0xeXJvtPp9EyJenYvVGxLl6UjzXB31IVaLfaF9l87yWSEsrrc65HtSWoZ0LDbkk5d1PuLOSO9Xx7JlN0vaAXcSO1t9Mfr4+IoSqNw84a0TZ9f5tvDurtnXBxVdByHIVRyA176NhV+r9btlJeasFMGmQ3W3yDDPsaenaGf5iJ03V17u3RuWYd7MSHk91c4NQ8d6wf682DYiliBeXi+JiF/0OsKXrMJm6ZuB1XJFDx8H+cBSWvXyoKXbajsv+ImGdCzuY8TI60xqE2GITjI9kGrLE12lS2D7YhCxeBN2i3muXxCJ6UvqMfC+WpbVa83b4jW0aQtdW9upgbMnRNNA5sYPMW+lWP/yviMM4RuqTNh1GIJ9TNuJtHxvrM2q3A4F6weDMMq1GAmfv6luL0pdWtZOLKlHO3gP6Q17vVhfb6xUjxGJ2DzvU8SJE4I+op6k6dSex4L9K91W7pwAS2xyHhPeRuRIT+j2x2HekmVY/P1h6PxCEBU+1PTbOlW1G4pZc0IQoEtHjPjcvCVxSGrmi9A5MxFg+MaJs8gTFYIhTqcRt1LKE4v48x0R/PKbCO5V220WzBA7D+m+OaUHRFk/j7u2M06b3hg7MxB9rE9g9QpRtlVbkNcxGKHDqhyJpeUUy/Bo22LEr5WWYRlWp1vDf8JszHrc1WSnVRNdrxDMFfU1xEmPpO9XytOZt3ITUsraI1BMa8HL/St7dCytN0vziWUIFcvqbaUs68I1u3Cp7wxMqPaGhqp6L7sdOnaT6rHqOKvOyjewrLqgp9y7piVnBLw+G6H+Dvhju1q/3+yDrmcQIt8IkgNzi7kGYVaYVF9ZWL9mGZZu+hW6h2cicrgUAmch03Cft2roek3CO2FB8NMdVtrWkjUimHWV10uIfE+r6rn49ZZ7oIwvDyos3VZdMeRl0SbaFiJBlF3aTlKaD8CsMV7q+9eDCOKnirrv1wZ5++KwWOwLtp7riGmi7fiLd4+d1OZXCq6lXitotD1X6xrbTvXEen1jJoK7iZOIHbHyviNNWq8vD5Xby7GThkDLFh6TwpV1kSTyLYlB7G/tMWGqkq+CldheZirTS9sstpfP1yC+tK/l7cSCerTuGaKsr2b71GPESsTlOmDIpNmY7KfUtCV5qGFpcHdyp+srbdHzmHe4H2b9a4w4q7td5CM+8nXElJq/gzfdHKVJH2PK0kIEzw23/MsPVOH23BapJlynDcsd1INF16wsHYcOAy7+/W/djf/3TYipeimh4GckZwG6+90YXN0yiiFd+r7q8iBZ5nbYFqluuE4bHAZYZLHS33OQZ+eF4GF1vM/UDVR48gSSv4tExCJpfMxepCXEYuGcWGRYuSLoL6Z3eKaboQiZ8hiYKCw+YIuAR/tXuTxIlrgdtkWqG67ThoeXCKnBMfkhXumHXTv2xagJoyz+wWq6ntKx+vmPsVkaPPzkC5g8mAcTImqYGGARERERaYyXCImIiIg0xgCLiIiISGMMsIiIiIg0xgCLiIiISGMMsIiIiIg0xgCLiIiISGMNIsDKWPw8fyDzVqRPx/roMEx8VqyfSfORcl5Np2uzb4lo788jZp/6+qYqRuaGjxE+VdoGn8fEqWGIXrAVmUa/JHxDt8+CvVg2KwzzNl/rLw7fToqQsjgSM6O3Ik9NMS8VMdK2uDhVfU1E1xN7sOg6KcLuhR8j9nhT+D0+BqHPBsK9hfoWNRiF8R9hznfpKG3XG8FjQxD8cEdYX9DD+qb9dq0eZ3OLUHjRKMK7A5QW5uBsoR531lIT3doYYNH1UZiKXUcBx4DxCBneDz183fiTKA1OPpJ/OoHS1oPwj/AQBPj3hv9TkxAaHggXNccN17o/Qpd8gsjH63iH+JxNmPPs85hT9Xcsbwt26BP2CT6LMqr323p5iBoGBlh0fRTroRd/7JvrlNfUAF2G3GVio8NN67AiIrpFNYifypHGeEQneyHs80nwUNNQeAQJq2IRuz8LheIgYN3CFQF/m4RRvoYfpJPGIyxBvE8IFvQ6gsX/2YOM86WwtnFGwN+nGuUTyvKR9u+PsTgpB/oya9jf64sJj9ohbuEmdJjyCYJ7AXkbIjHzOyB4TgQCnNXPCebKZvJbeeLQJE9v8hjT38qzYJ5KviJkbozBp5vSkV1ibjmrUpY7yT8EYXftqfxca0+MmhSCgE62JvnifcZgVoutmJcgytFrEpZP9hLvlSIvaQ2WrTHUmQO8h47H2OFukMIpZZnliVRwfzwCs4ZLFVPzZ69lvnVbp1XqTUzL4+GRmPykJ3TGpx25e7F6ySrEG37XsNtQPDdxKDrUFDde77bno8e8r1MRYNwOTFi4jqWxXIvEdMZOhS5+CTb/Xgp/wzSl+f7nC6xOOlFRP95Dx2DssM5K/aifNeGjrCd5/Z8KxNw5Q+Eoks1un9er3Uo9N7PigIr2ptAf3oQVyzchJb9U/X3K/gieHAQPe3VdqPkUzup2bFhPhvanqjIPw7Y/atIA/LY2FrsL2lTuB0RbiF++ErEH8yvXX9Vt3cixL0IxJ8kTYUtCKuvqRCxmRm1Fx/H/wuR+hlC2CLujw7D4nFTPXkibFYkYSM+dsbnW5bGg3RHRNWuYPVh6sSOJmI+YozoMHR2C0EljEHRPPjYviULM/iqjFA6vwpw1+ej5ZDBCxwbCzz5H5PsY8RU968XIEJ+bl3gajn5BYlrBCLr3JJZ+vAmZao660IsD02vvxyJD1w8TxIEhdGx/uOcnYt6cZcgQBwyFpfOU8r2JiLgcuIuDX6iYXnD3YsQveR3z4ovUPObpf1qG6N32GPJ3UYaRogyl6YiJjsL6E2oGg30rEZ0E9HiwNwK6KDvgvA1zEb50nzigBsrznPBwG2R8NxevrTgiv+8xNhqLXh6EDuJ5h8EzsOiDaIQOVg52tX22Qj3mW8GidSrq7bvjaPuwUm/StDI3f4zXlqTKPW+y36UD6TIkwRfBIk/omP5o+2scIsJX4liZmqeqG9H2RHBlCUvXccJK6YDcGf5+vdHpLiklB/GzRRtKyK+on2A/W1HX8yvrp3uwWK8zEOQknjsNQqRYx4vGekrvWOAGtFsjyjYXhwyH/so2J63HP7YiOmIJMvQiQJPKbtJeX4G/tFx1koPYz2Nx0sETAX5ecJHiPbUtrP7TFUFjpLYQCB+92NbD54ogTPlUVe7duojg8wiOGS1P3qF0efB6yoF0JUEi8hySLsF37ywHsZUsWJ5a2x0RaaFBBliFe3YhzdoNwTNnYIh/b/Tw7YchoSEYohM78R175KsalbogZLaaz38oQp4dJHZYOUjal6+8nbURMcnFcBE7qsjxg8S0esN/TDje+bulBxNj+Uj773E07RSEV0KD0EdMq4d/EKZN6Afd+b3YmayWzMJ5lu6LwcJkwP/ZcHWck8g3IRyTuwNp6+JwTM1nltNQRL41Bv5SGQaPQljEKPSwykfc93tN60fnhdC5EZg8QRwEB7jKZ++ffpeFDsNfQdgYpWx9npqBsMEOKEyIw+5C6TN20LVSLhtZN7eHzl68thEvLPmsQX3mW8Gyder++CuY9pRSb9K03hrpisLkOCTJBxoRZHwi6lDU06zwUUo9SevqxUFwOZ+IuO3mAwFN297RdVhsrh2M7ay8XxsL17Gu13i8HzkVwaKu+9wr2lVSLFZn2Yp29WZF/UjznfW4K/TJMYg7ID5kbSvWq1i30h7ESqesY51lFwpvSLutkIWEr1JR6ByIWS8bbXMRQfA4n4rYbadhLZXdpL3awroee8YOgeGICpsk6jEQHvalyFgRg/gyL0ybNUken9bDdxCCZ41BH5zAivVVTgoMOndGDxRh/2G1DYjnGT/nwL6Frai3vcgwBPaHjyAZtvDu7qYmGFhbsDy1tDsi0kSDDLDsB0zF3Lkz4W90qQ5WDnC0E3/zinBWSVF06Q0P48s997ZXuubLLssv8/anIxsO8H/IdEem6+gmnyHWjQP6TI/G3DBph2bEsY08ODW/4LT80tJ5HtuTCr2ulzjYGC7rSWzh4Sk+pz+OzJrOSO9xhaPx2m/dH4MeEAe/AwdMD3BV6icveY943w2DHjauXMBFnEnrxIHj6HE1wYw6ffZa5lvLOs3etUfUr5jW/5lOy166/DRpGNzlYDBVDrR6PDzAtJ7cPNFDTDutmgXVtO0dPIhCOCOgf5V20ML4QzWwcB37+Hqpl1glpUjbk47Sq9qVaKaD+8MbxUhIrSY4sNANabcGJ/YgXsQNPR7uZ7rNic+FTA9BYFcL67JWzvDzMVrpZelI3lcMnU9/ub1U0HXHAx3FYv5ywvwtFew7o6eYzLGjR5SAsTAVyb/ZYdDYx9Cj7LAIvORcyDtxHHqrLujZRXldJ7W0OyLSRoMMsGS5exEbHYnpzyv35xn3bCRiLOkCt2oin/kZ5J+SPuSKDu2U19dOGke0GvNmhSr3h5Ies0zP2i2bZw6yT4k/+kT520LKMiqPKatquF5Sg7btxZ697DQKTXqDTCllO4HFL5nOc9y8xMpLa9W4WZ+tuk4LC6TeJ3vYV/1ao40zPHx7o0Nr8Tw7S14naavCTOf37Hxsrm2GWrW9HKlHoS1cTOPAa1L7Oj6Ns9KR367N1d/6tOmITuLj+j9yaq/zat3gdnv2tBzIOLaWIlxj1nDs3hs93KqmayQ3B5llYjET5pss47hnw7D4qJrHLNEGu4syHTwit7/S9HSkiaDMo5cUeBUj5YBUR6U4eVw0qG7d4K7FHrxKuyMibTTMAOtELCJmLUNCY09MmDlbHgNUMV7kJsv++i2EL90D6wdGY1aUVK7K8RL10toLIdK4kqseQeghBQrXhRuCzM4zBP73qVmqdbM+Wz8eAebnF/qXjmqOKm7htqeF0urGntXVTWm3N55jL2nsnJnlHOmFVmqeqly6d4dOHodVirR96dB5PQB3EXj16OOMvORUZOMIDh0Eenh2Z2BEdAtrkAFWxvatyIQXJoeKnbWbgzI+xDBepI5c2kv30/kD2Zb0QNQqHfE/5gM+wZj2VG90cJLKVTlewsCyebZBK+maR4kOLj7S+I6qD084Spe66uCPk2KGVm2u7tkxYi/3BJTCvpO5eaq9P9W4WZ+tysFZGjRfCn3FlwpUZSKtsAil0rWZVm2US0oOnc3Or7qeDy3bnlLOfGTnKq+1UPs6VttV0Wlc1SFUchy/ibLo2jobXVKsqxvcbu92lk9eLhRfPUKr9HwR9HrzI7eumWiv0tq7YCsCo6uWUTy6O1cfHHXpBj+rIuw/tBWHDgB+PZWxl47ir0tBOjISjyCtzBk9u5lvg0R0a2iYPVjSPlOcaZvsOvVZyKz5C0pm2XfvDBdpwPNO08sX+uMnTL7R5+jUVvyfg+xs5bWiCHkm40ZFiaRyVRnroD+ZJc5KK1k2T2t49OwMa30i4qRBJsb06UjbX8vCnspCnnFvhJjOrp/FVMXZs7uaZI5LLy/YIwux3xl9o0lSloO0pCz1hXk367NVOXbrJqaVjq0JpnWkT1qC6S/NVb5N5eaFPi1EwPR9HI5VOQbn7dmL7OqOyxq2PUfvB0Q7yELSLtNIu/B0lfVdnXqtY2sRAHiKdrUPCXuK1TRF3padSIEt/L0sHGRv1g1ut+080UOsx93bd5oGjOJzS0PDMGejad2aaiu2a/HnVI7peKm80ybbq1k23fFAFzGbpE1IqBIg6w/sRUYNl+Fh5Ymu3YBjP25BUpnyXObqBb/WYr+w/mfktfaEh4aXjolIew0ywHIXZ3rWSMXCN5YgPmEvEr7+GBEvLUNCfQaOuA5DsI8tsrfMR8QXW5EmDq4JK6Pw2r+rHOh7igOyqM34FfOxWcwzLWETls2ahZiT6vsysbPsKf7si0HE4k3YvWcr1i+IxHTjWwNILJynzn8URrkCaWuiEL1SyZe2ZTWiwz/Gwu92VB8ESKR7+UStFgdRqayxWPj6SuyGK0Y92bv6M2tJp8cwWZStMFHU6SJpGQzLGol5azYhraYDx836bFXqtDLWvImFXyfK9bb7a1HXon51Pk/CX+pAhBuGjhVB3flE+ev8UjtK25OI+EWvI3zJKmxONR8IXI+2d2xDlEk7eGNtVs3ryKCe69jaL0i0q2IkfF5ZP9J853yXJeonGIHd1Yz1dGPbrboef4vFG+/Hqu1G/ZzOC8HD5JUNtHaAg9h+M1N2yHky5dsoOKNHLwcxzzh8tNRQ/3Mxc1GiaQBtlh36jA4UQd8JLIuKQuwWqf2o2/GCZYjdnlXDNEQQKg/4L4a++wPoUdGj5waP7mK/kJ8PXXfPyru2m2N2eYjoRmqQAZa131S8P6kfOhSkImbFMsT8VAiP8bMRKt1AMScLfxifAdfKFh6TwhHarw3ykmIxb0kMYn9rjwlTh5qOm7LpjbEzA9HH+gRWi3nOW7UFeR2DETrM+DTTGt5TRTmkae2Lw+Ilcdh6riOmRYXAX7x77KShJ8bCeVo5I+B1Mb0BbVEo51smDlAHYe0Tgijp50pqOor2GoXQB05j879FWVeIg4c4aw6e+Q8E1DqYX5Rt8tuIHOkF3S+bxDKoy9o+CJGRk9CjhsuLN++zVUn1+yYiH++IP7avlOtt6fbT6Bg4A+9MqvxGna7XJLwTFgQ/3WFlnS5Zg7gzrgh++U2E+Jq/PHNT2l516r2O1Xbl71BRPzFJxfB43LR+6u0Gt1t5Pb4cCI/8nVgqtZuVO/FH+0C53VR8m05sv0EjPeGYs1O0rRgkSQPxBZcnp4v6d0be/5Ryrk7XYUjoGHl7rVW7oZgltu1H2xYjfq3UfqTPW8N/wmz5lhc1Laaum6fcI1d1nJW7Ty+5/v08a+lFrGZ5iOjGaRB3cr8p9i/DxIV7K+98fSNoMk9x4Dd3d2pqQBriOma7JaLbS4PswdJWMdJWrERGlUs8x/aloxRu6FTNl8muzc2YJxEREWmFAVZtyv5A5uFERIcbjaP4IhLRicWw9xsK7zpdmrLQzZgnERERaYYBVm2s3PBo5GyE+lgj5TtlHEXMfmv4jZyJdyZIA5qvg5sxTyIiItIMx2ARERERaYw9WEREREQaY4BFREREpDEGWEREREQaY4BFREREpDEGWEREREQaY4BFREREpDEGWHTTZH4ThZmzViKjRE3QjPSzKs9j3OJU9XU1CvZi2awwzNucoybQtdAfiMW8mS9inKj7ifMSTX/A/HZ0q7SPfUvkOo3Zp76uxvXbnqhhK0LK4kjMjN6KPDWFtMEAi26a0vP5yDutR6n6+sbT42xuEQov3rwS3BQ5mzBHCkCrPCbOiMKyLUegr9MPUqsKdmLxwq3IsPZE8NgQTHu8+7X/KPRNd3u1j5u/PdHtqrQwB2cL2Xa0xhuN3i6kg+KsOODxCMwa7qwmknn8YeAaqW2psFcQgn0Mv7tUiKNbt2DziSLo/GdgwdjOarpl9PFzMWVVPoLCo/Gom5pIdSf1Vi1KRYDxD7qbSyOiWx57sIjuUPbtPdHDt7f6GCSCozcxoYsItRK2IqWOl5kuFEsXBHXQ3f7dVkREmmgwPVj6w1ux+uuNSPqtGKWwhv29vpgweQx6OKgZJGVFyNwYg083pSNbHECsbRzg8fBITH7SEzqjUFN/eBNWLN+ElPxSlFpZw6VjfwRPDoKH0Y8s64+K+a2pMr9JI9HDyfBLgdX0olTtiTKcnU6ajZ4Hl2DpniwUlopDVbt+mDxNKr86HfXjCmcEz4lAgNSRZW6Z/AIx4W+9YV9T+Fyaj7Q1X2B10omKz3kPHY+xw92USztqOY/JmavyQtjnk+BRsYxjEHnPz5VlaOGKIeNfQFD3S0j7t9EyOXgiaEIIAjrZylPJWPw8opMN01Ll7sXqJasQX1Gv4jMjg+GvfkZWeAQJq2IRu1+ZrjS/gL9Nwihfw8o2lCsEC3odweL/7EHGeTE1G2cE/H1qZb6regUt/Fx1zJR99N/Ho4+r0a9H5u9F7NI4xB/Ply/FyXUyLhgBXezUDDmInxWJGAxFWGAR4irKINbP45MwebADMjcsM6lr02W3QA29oXkbIjHzO1S2L0nVNmYyz1raJ4qRuSUGq79Pl5cD1rbw8B2NkDG94WioFsM2MHYqdPFLsPn3UvgbemtqnLc5hvoLxNw5Q+GopprdHkU7il++ErEHDevCDQFPjkeQFu2jTGxf//4Yi5NyxLTV/cOjdohbuAkdzPVEmd3e1G2j1n2Ekrve21NVte0bBKWd6BASNgDZa9Tpi32lu18wpv3dsO9R10XLIEQ+nIPVdd2eJGq9ZPvPwCLjXtXCnZj30moc6zcVi8Z7ykma7ZOrUftxoRR5SbGIWbcLGYY83YbiuYlD0UGtuIrtKywY2PiF2vZEvu6m+aoyfG7UpAH4bW0sdhe0qdzGTNqxutyGY19WLMIjt8J+ZDTCBhv2MYJaf38Mnom5I3Xmt5mapluwFdEzY1H65GzMGmZYj6VIWfAiFp4ahKi5QXBRU3FoJabMS4TfHdgD2/hNQX1+29KLHdBrC7ahwGUAnnliAPy7tca5lJ34JiEXnR/2gmMTKVcxMj59A3O2FeD+waMweqAPut+Vj582b0L8H+3Q36et2CQN09qJ/PYDMfZJMa2urXF671as3ZGNzv7e8kGhdP8yhM3bil+bPYjgvw3Gw93aoSxDbNwb0tGy1//BTW7HOUiLS8GvLt54XEy7wvljSNh2BOgipn1/C+CPFHy3NwdnjqTgoE1PPP3YAPi4Atkpe7D5QGP0G9gHPv0HYGgPIH3XCbQaPAPvTB0Gt7us0bgRcCzmNbz1Q5Vl2roV3x9uif4P3Ytm6mxNlIkd39sR+DTDBv2eeBqB/bzQufERbBafy2jiI3a+olzWLeF4T0c86O0FP8OjQykOZeSizNUXjw7ohOaGZcxJw56CTnh8pKgLdzucOZqGxJ9+Rur/vkfSRS8EPRUgp+dl7EX8/8Q6GSjqUayT/OTvkZjdFg8FitdSuQrERh8egz3WXgh+Zgge9r4XjQ9swzc/JuCi+yPwlDLpxU7y9Y+xvqAtAp96DH95sBtcC0Qd/vBfnOswED2dG4tMarmKDiPlkDX8nhiOv/R0ReNTKYhPyEBL3wFwE4t41bqw9HPm/C520hGrkVql7Gs3G7UJeUe+GimXXfHE01LZ3WCftQdrN+7AuXv80bOt1ALP49dtO5GWewx7jurwcEUZUpG4Jxmpu7fh+6y7Efj4MAyS0jNFndZWtqquWu5KfyTGISHrLvT9az/cIzcedbvZcQlew59EkL8POuMgvlv3PY4194efWzt0Fe3Tp/xn7DihQ9DLEZgW5K+2z1JkLH0NczbnoHlvEfQP9UPPdpeREb8J3+1vDD9/0YZEGzZsA6cO/IzMlp3xkGcHdOrmhXta1TZvG6mAVaj1J3L+ZaDURg2qbI9lR7D6tfn45qyrCDiUduSStwff/PAjThimXe/2IZU7Eu//7wJc+j4hltsXbldS8eXXKcgXp7Mdeg8X61rKZ0R3L3wGDMBfnXPw/f5c9BkbjfCxXnBpJtpErfsIZTnrtT1VZcm+QdD/shNbDmchfc9xsdxP4OmBPeBedkq00UT8+FtrDOrTXuxP1XVxKgOJJm1Zqq/tyGkTAJ/2huCnGi3uBtK2im2hMTzFTvAuNbk05Xt8/vM5BIwIlpdD032yGZYcF/I2iHW2KgNNvQIxTrR1v45WOLJjO74X68hP3l8a6q0Qmft34c8Oj2DsED94tMzF/j17kZDXDn8R5ZL2YFUpn8vBkdQjuHyPJ3w7d0Lnnp3hWKbsD7+/1BlPPyn2CQ9K6/gH/Gd9BpwfEtvw3aLG9uxE/BkH/EUcDwy1rdTfRQwd9TQ6tzazzaj72Wqn21qH87t3IqGkHf4q1rVc5rI0xH8h6rdYDxej/VFe4lps/MUNw8f5wkU+Ft85GsAlQnG29d/jaNopCK+EBqGPdLnDPwjTJvSD7vxe7EwWp3qSrI2ISS6G++OvYNpT/eTLIn2emoG3RrqiMDkO4kRTyoSEr1JR6ByIWS8bTStCnKWcT0XsNilTFuJX7RV5hiLqrTHwl/MMRcisSQjQZSHmi60olCZVV11GIVItf5/hk/BcgNgj5KSKA601rO3toGulkzcO6+b20Nnbwlpec+lI+qkY6DXaZJlCxWdLjyYiOVfKY8bhHYg/b4chkyMwarByich/wkwE3ysCtu2JyJbyiLNMD2nZKh6uyNubjkIrV4x6zrhnQHAaikhDXYhAL2xqf/F+PjKthmJW+KiK9NAR4kxTbLjJh9XPVVGYlIi0MgcETQ1RPuM7CMGzxsBbHLDik9KVPHt2Ic3aDcEzZ2CIv5SnH4aEhmCITuTZsUecQxnrgpDZaj5pHT07SJQrB0n78tX3q1PXz4kzt2/icKyZF0IjjMo+ZyqGNMvC6vXStxlFnrVKnmmGacuX5V5BsKso+/JYHDMeXG6cT25fSj1knu+CaVJbq/My1aJMnH0nfIyFicWw9xsKb/WsvHRfDBYmA/7PhiNkuNLG/CeEY3J3cdxbJ/W4qO2zubTnbCLaqXhuaJ9ZcYhJEtvc8HBEjh8kf1Zq22GTvaAT7y2LL5LnYaDrNR7vR05F8IQQ9BFtsfZ5X4MDiWIbENP+m3E7egGPthbT/imxlm24lvah7mtcxMmQYbn9x4Tjnb8rPS1mWVmLehN110I5BDZvodSjiWr3Eer7VViyPV3Fkn1DBVv4jX9T3ff0Q8CU2Qjzt0Xpgc0iSFezSKq25TniuTj47l6/scr0zLFDzwdFNKk/gIwTapLYltL2ifLresGnq/T6Ou2TK1hyXDiC3T8VopX/pIp13mNwiNjnuaI0awd2V5RdUgzHQZXbhP+YmRgr2rR+X2qtbbpDYDiiwiaJbSQQHvbiBGZFDOLLRP0a9gnqOu6DE1ixXgSNcEaPPs7A0T1Iq6gEtf4cfOFtdrykZdN17yLa58EjlWU+eBBJok3Y68S2kGz45m0Rjh8R20UnT3iYOx9q4BpAgOWAPtOjMTdM2skZcWwjd1HmF5yWX2bv2iM2ZjcM+j/TLmB7/xCETRoGd2nln9iDeNEWejzcz3RarfsjZHoIArvqjPIMgKNx7em8EOAndni/pSKjHluzj6846KjPJS73dRT/i3Chxm902cNROqXLPo5Mo3l2GB2N5Z+HI8BJTaiq6yhEzY3GqJ7qa5kdHOWu39Nmd0Z5G5Zhtdhp9vn7PyovHRnc42paFy3tRclEOXx8TdKtO7rBXXpyRX55FV1re3G4voDfDhsFC7p+mPb5J/hsgnJwsh8wFXPnzoS/cRmsHOAonaHmFeGskqLo0hsexpV6b3vl0knZZfllter6uZI92LtfFNWnv+lOxMoTQ2eEYFq/tig1ytPDeNpWzvAfJAWe+0wDTztXtDXOp9OhlfS3i5fp593c0EP6W9symXHsu8jKbxFOehEzV4idbq8QvDXes+JM99ieVOjFgczf1/hgbwsPT7Fn1ot2V8MdDCq2uYdNG4yu1yAMEoFMhjigGN/Koeo2cC3zrtVdYtsRf7KPG31r0soNQXM/wfKIoXL7rVYt7SNvf7pYbgf4P2R69NKJ9t9BfV4fdd1HWLI9XaVO+wZ7dGhvGgS6BwwQy5iP5ANG86zalq06I2CAmGD+EWRUdxJoxF4Ebz3EgTphrxqllKXj0AGxKF4PKPuT67RPrmDJcQGd8ei74jg01rRe7dtIFSf2SyY7Jmf4+RhvE9Zo30Hkq3UbrvI5UQ/J+4qv3qfouuMB0TT0v5yQb7vg2K+faJ8n8HO6evqp1p+L2D9XXMYzZuF03T27wLpMBFjqajmWug/6bkGY7GOLYyLwkrftsuM4elzk7dbZpO3eKRpAgCWRrn2vxrxZoZhoOGBUGc9QWCCdLYsDf9U9p9pT00Hs8HH2tNIgW0tHa2PWcOwuonipn7naPKLBdpJ2eH/gt9+V19fEoq5UV3F2OQgep3ci4qXnMeXVuVj2dSIyC0z7ccySxjEtjsLMqWp9iUd0svpeVb/H4dPvsmAtDr5j+1U5q66BdR27g60fHInJvayRsup1jHs+FNELViN+Xw5Kqx5AcvciNjoS0583lD0SMZYcbK2aVAQOdVLb50Tbkg4nLuKgXZW9m2g33Z1hXUMeJfAsRvYfpj06ZomyaMWxVxBCJ4mzbPUx+XEvtPp5GV6O2oQ8uc5zkH1K/NEnXnVbhymrTE7Jzap2mxNBl7u0qfyeVUMPxrXNu1auw/DcEFdkxs/HlMkvIjx6CdYnnJDHNtVZlfaRf0pqjK7o0E55fd3U0hQs3p6qqsu+oap2rnLQk52vnNhWx7G9q/g/H3lGcVi17L3Qt5MIXJNTlfZy+CCSymzh76MGM9d7n2zJcUEijRfcsgTRL71YeRxaVMu9+Aya1GO7zs1BpliX+oT5FetJeYRh8VE1j6S1L/zuBXYnqz38Uk9TmTgBkHoGzbF0ut26wVsEj/vlAP4EMg4Uo4dnd3ECJAKvo+nK/dh+O4G0Mjv07Fr1rPzO0CACrOyv30L40j2wfmA0ZkVFY9EH4vHyoGs6W6yXunciXDNdpyCE/WseokKDMLS91I2/EhEzX0LEmiPKxmSOfi8WvzofMSed8ejUcKW+xGOyyVmrquwE1i/chGMtvDBtXO/rexZi5QDvKaIs785E6F99YX9uD1YvisSUmfOx2xBAnYhFxKxlSGjsiQkzZ6tln4Gg6nrrbgdXSqtfV9eR6bcI1ct30mWs3+IQ+z+jErX2QohRIFb5CEIP6cSkHmo9yBtch3krbNHhqXB89q9wzBrRXwQFWdi0ci6mvxiJ9Yduxtq4DizZnqqqy77hhrGD90OiXRb8jLQssY9L3if3bPp0U9+uyQ3bJxcj5eNZiFibBZchUxGp1tuiKj1a10PVE6WKx0hxwiTnUC+zHhT1J4IeuafJ4QH0qCa+Mqh1ujbd8YAIfI8dFcearFQkFbjCp5cINh/oDX+rdOxNLkXh4SPI04mg6w69dUsDCLDSEf+jiKB9gjHtqd7o4CSNXRAPdcySgYOz1FVbCr0UVRsrE2mFRSiV9ql3O8tB2YXiq3ewpeeLoNeL9FZt5G7iPPns3FT2r8fF/21x7/U+czUoLVbKLg4WLl0H4dEpMxG1MBqhvZqIM6lYJFQ3NmPHFuwudcaoF0Pg39VVqS/xsDfTTXNs5UeIzbdFwPjxppdFrgO5jqVvGTm4ocfwUZg8ax4+ixiKDuKMeun3ypiRjO1bkQkvTBYBZQ83B7Xs9ibfAr3hnBzkrvbCC2buXa5Xlgni7Fdqgdlnrr5WUfpbllgmsQ7bXn0GfqMZLmPln5Z6INqgldTYS3Rw8akMxCofnnCsYVyFvXzGX4jCqxb5BDJ/FX/auZq/RCG7tnnXSlovhcVigV3hPjgIIWEiWJ8rtgfrHMSuvbYxOy5y78wfyL6WS5gasGR7qqou+wazfs+Srxy4OLRRXlcj76Q0SMtBufRoAWufB9AH+Uj43065p0S+PGjY5q/3PtmS40LuDmzaXwr3wKkIHtwZLmq9GcbUXRfqPuWCrbOZ7UM8pJ5zJSfsfXzhIV0aPKj0NFV7eVBi8XTt0LGbszwOK0G6LO7sBQ/ppMfKE127AykH9iDjaBasu3ZTLuXegRpAgCUatzgbLq1y/VovNmDjyw+O3brBXgRjWxNMN0J90hJMf2ku4qWdYTtxRi8Nvty+03QHq0/E0tAwzNkoMrn5IkC0vrTtO9TLKCp9KuKTxLTvFY1MviTSFo5Sr8qpHLl7uULe6Roui9TR0Vi8/FIY5u0wWiYrO3j0lLrFlXox55IIKqVTu1LjsVBlOciULskYkb45szChGPb+zyG453XcUciKxBlgGKaErzEd7O3qiZ5ioy2VI2BB+iOtb+WVQi8ClKv3rTeOVWd07SJWbeIu07JLvX9vhWH6Fz+j1MYXvXuKoibvRJpxHCbqPWGrOmBXTONm0x8XwY/469BaOkBai7bUGdai/cdJg1CM6dORtr/mSnfpK+3ET2DrdtNIQ79vK7YWAB69TMcUmarvvJ3hKB05crOQb7wuCky3u2Nfv4kpL32IBFGOCvYPwLDpXFJS6sW+uzjAIgfxO00vZRrq9sawcHuqwtJ9g6IQmSdFkGok+6e9Yhkd4NPdKHIqysIfJm3+BHbvFuvUoTM8LO15Vref7PhYxBUYXR6UXO99siXHBXW+pVV6zPJO/qE+uw6kHiSxz9AnbbrqZFp/YK/puLPWvujfCUj46gvR5p0R8FAN3Vd1mK5jV3GiIwK32B9z4CjavTJGzRo9enmi9NBmxIn41rv79e/Fu1U1gABLRMtS9/W+GEQs3oTde7Zi/YJITF9iOoAWnR6TB99lrHkTC79ORNqevdj99XxE/DsdOp8n4S+3NzcMHesF+99i8cb7sWJae5GWEIuFr6/Ebp0XgodJmVwRMLo37HM2IfyNlUiQ82zCsjlLEK93RfD4QeoAWRH99xJbfU4cPlq6VZ5fwsq5mLko0TQ4sFRrBziItZWZskMuV6Z0YOg6CEGiSBlr365YprQtKzFnpfQNEU94yJe9xY52wYuYKN0zRt0JOPb0FAeAfMTOm4vYLaIeNizDvJmRWG18HCwRG82KVBTauGFQpyJl2kYPef6asoP3EFGvYqcVbajXPYnYPO9TsUMF+ogyS9zFX2ukYuEbor4TRJ1+/TEiXlqGBDOdR9eNCGzDn38RCysCWzv0GR0I94ui7NLlS7nsW7H6jfmIPeOKUU/2FmW2hvcIKY8o++vzsVmUXcoTG/UeYrJsETAuqPKM/FoUJmLx1Bcxc6X0TZ+aFZ4UgYrROpXap7Q9lLboh0F+SkCt8x+FUaKNpa2JQvRKpR2nbVmN6PCPsfC7HciuqTG7BiLYzxbHNkQh4gvls7s3LEH0YrFtivdCpG/B1aC+8/bwEm2kLBWL5ynbsDTPiPBYHDOqX/e/DBb1nYWYOYZ1IZb/iygslgb/PiAOGmq+enEdhmCxr8neIvYv6nInrIzCa6Jua6V+OSc5cZP4XDryqva4W8yy7akqi/YNFYqR8HkUlm1Q9j0JX0QiYks+7Cv2pyoR6CyU9o9qm5e3C6lX/Olh8rIq96d6HnM2mJ2JShy0RVBlLQLD0qsuD17vfbIFxwVnT/iISWdu/BDzpLYq5r86KgzhNS7TtVL3O+IkZllUlLy+KtragmWI3Z5ltFx2ov7cUJqfjzxnX/SocUhUHabr5glvXTH0ejv49668DmjtKYJSfT6y9W54wPN6n5zfuhpAgCUOXFNnI7RfG+Tti8PiJXHYeq4jpkWFwF+8e0zuipbYwmPSm4h8vCP+2L4S85Ysw9Ltp9ExcAbemVR5Jq3rNQnvvBwIj/ydWCryzFu5E3+0D0Rk5KSKS2TWPUPwTlgQ/JrtQ4yUZ8Um7Nf1Q+icmQgw6op2eXK6KJcz8v4XK89vdboOQ0LHyOWqM5veCBopdvw5O8UyxiBJPqMUZyKvi2X3d6hYpnnf7IOuZxAi3zC60Zs4Gy29olcug0pcgzArLBDe4gCzfo2oh02/QvfwTEQOl846s5ApDQgtEH/Pi78lJxC7VExXmrbRI0G6xKOxq+p1yUrE5TpgyKTZmKwe8K39puL9Sf3QoUDslFcsQ8xPhfAYL+pAuoFdjjhTNj6DvY5Kr5SiUG8U1bUbillzQhCgS1fLHoekZr6mbcJZ5BHtcojTacStlPLEIv58RwS//CaCe1n+5YHalJaV4lJJ7eO68vYp7dLwiEnKh0Mv0XaixlQGe1ZqGxvQFoVJSv6F3x2EtU8IosID4VLjvtMaHhPeRqRot7r9cfJnF39/GDo/6bNDTb/xZU49520tpj/rcU80P75VbCuifW/NF21kquk4vavWhVj+/dbwGzkTs54yjg7qQ9rXhCv7JLncMYj9rT0mTB1a+7hQEZyFDHBG6QFRX5/HXdO33yzZnq5iyb6hgjNGTQ6E7mcRbIjpL0s6jQ79QvCW0f5UJuo69FEdkr+JEWUQbb6gjShDeJ3bvPWDvvATf00uD6qu9z659uOCK4a8MRPBIvDL2CGmvVIEyM0HYNbLyjo/dvI6BVrSfke040fbFiN+rdKOV6dbw3/CbLENuIotsJLORwRW4q97H6/aTyAsnm5n9JRulVF1nJX6xQQp8Ox41Zdc7hz8LUIiohth/zJMXLi38i71tzGzd/y/SnV31a/i9zhERGyC/eho+R5+1ZLvSp6IHtPnYVR3NY3oFtYAerCIiG4lxUhbsRIZVS5bH9uXjlK4Qb5zAFUoPJSOTCtP9H+o5kvG2bt+Rral3x4kugUwwCIi0lLZH8g8nIjocKPxK19EIrrKXfJJUoTsU6XwCAyCt9lvhZYi74Ay/id6Sz7chwzSZqwi0Q3ApkpEpCUrNzwaORuhPtZI+U4Zv2IY3/XOhMq75JPEDh7jIxBW7Y8sFyJj3TIsS8iB44CpCB1S4+hsolsKx2ARERERaYw9WEREREQaY4BFREREpDEGWEREREQaY4BFREREpDEGWEREREQaY4BFREREpDEGWHTTZH4ThZmzViKj3j9oWx3lx2PHLU5VX1ejYC+WzQrDvM3X8wdZbyTpp0ksWO7r6jJKzl1EyWX15R1Lj2/f+xPtXv4T/zL+jeeSEhRduKS+aAD2LcE4sa3F7FNfU83OFOLTBbnwE+2i3cu52Jivpt/yuF3XBwMsumlKz+cj77S+1h8lvn70OJtbhMKLN68E2tJDr3mwWje5287ALbIQbp+eRZGaRgZF+NfrZ+ERUYBPf1GTGrTKILO2h0kQ2lCVnRPB1UW8lVWOizaN0M/eCs3Ut8w6cw7fxuQi8FW1nl7NxcSPTyMx/8ZHOdyu64cB1u0iZxPmiDPFORsaSm8L4D52HpZ/Mgk9zP5Exg3Quj9Cl3yCyMdd1YTbXFYqkgqAPj091YQbz965MfqJvUo/ByvcrNV662oC93bSHyu4tlJSGjr7VlIgUfnopB5x2jc3TbdroqQ3aIcvYfEF8de2CWJmO+Gr1x0w0EF56yo5BXjhXT1e2F+OrMZqPTUux8ZfL+Ppd8+IgPTGnklxu64fBlhEDUT2gXTAZxLG+t28H2Ox6doGX713N74aaccd8VV0GDb9bvz+riOGOalJDZoOAydJgYTh0QLT1YBi9AjjdCeM66KkN2hlQK70t6UVnGo88l7EtthL+Fbk9+5pi91vq/X0dhskDW4EJ5Qjes153MhOP27X9dNgfipHf3grVn+9EUm/FaMU1rC/1xcTJo9BD+MzhLIiZG6Mwaeb0pEtTgCsbRzg8fBITH7SEzqjBq8/vAkrlm9CSn4pSq2s4dKxP4InB8HD6Eda9UfF/NZUmd+kkejhZDi4SeOAliBeHPCWT/ZS0wSpJ2pWHPB4BGZJv78ljWFYlIqASbPR8+ASLN2ThcJSsWtq1w+Tp0nlV6ejflzhjOA5EQiQfpbL3DL5BWLC33rDvqaNuDQfaWu+wOqkExWf8x46HmOHu4ndoqCW85icuSovhH0+CR4VyzgGkff8XFmGFq4YMv4FBHW/hLR/Gy2TgyeCJoQgoJOtPJWMxc8jOtkwLVXuXqxesgrxFfUqPjMyGP7qZ2SFR5CwKhax+5XpSvML+NskjPI1rGxDuUKwoNcRLP7PHmScF1OzcUbA36dW5qu6Liz9XHXMlH3038ejj6tRwJO/F7FL4xB/PB96sQOV62RcMAK62KkZpHFUkYjBUIQFFiGuogxi/Tw+CZMHOyBzwzKTujZddiOW1KWJIvzr5WJEizPsr0YD3665jFXijNvJphEmP9UCz3nJLUNMtwAT37uEjRBn4s8C38Rcxrf2TZH6SmtgSy68fhC7FHFg+D24OdLX5OORveLM1785vgpsoXweV5ASk4/A/cDAAS0QM7y5nFaUehbRmy5j4xnlQOTt2gRhz9iLs2bj7o0q+UQbH9ihCWaMbgXvuxqjZG8+3NZcEafc1kh6/S60Vz9V9FMePL4TFe5qg4zprWCo7UoWLrtMlOHYOSz//hJWZZXjpEi5uqzS5bFzeEEsSNi4u/Gi3KmozgON8NErTniiIsiqaZmuIPHzAjx9uGodioPwx4UI/lUEK4F2eN+/mnWq1bYiKRP7jH9/jMVJOaLtqvs8Hz3mfS32X1M+QXAvNV+1zNWJqZJfz+LTuOrrNbeifdngh+aX8MLucnQa3BKfDRbrTJ62qNsQG5GvBMulaYi6fMK7GaJGNMfZ3YV473vRVsV2I/WgjXu8yno9U4jlq8TnMstxVDSVTi0bYfRwkcfbeN2bUXYRR3+6gE/jlTaDJuJzXjZ4JcgeTnKxK5fbhLyNXN0SK9uJmXoS+/tP374ojgdWmPy8UQ9Y1bKLbWH60y3whLtyEbLaenMtxiOfX0Z6le0F6afhtfwycu8S6eF3oZnJdl1ZZnPra7Joo8PuMw7DSnA04XwN9dNwNX5TUJ/ftvQiSHltwTYUuAzAM08MgH+31jiXshPfJOSi88NecJRXYjEyPn0Dc7YV4P7BozB6oA+635WPnzZvQvwf7dDfp604BBmmtRP57Qdi7JNiWl1b4/TerVi7Ixud/b3hKDKV7l+GsHlb8WuzBxH8t8F4uFs7lGWIgGtDOlr2+j+4ye0vB2lxKfjVxRuPi2lXOH8MCduOAF3EtO8XO8s/UvDd3hycOZKCgzY98fRjA+DjCmSn7MHmA43Rb2Af+PQfgKE9RJvfdQKtBs/AO1OHwU00/MaNgGMxr+GtH6os09at+P5wS/R/6F7z1/jLxEH87Qh8mmGDfk88jcB+Xujc+Ag2i89lNPERB2BRLuuWcLynIx709oKf4dGhFIcyclHm6otHB3RCc8My5qRhT0EnPD5S1IW7Hc4cTUPiTz8j9X/fI+miF4KeCpDT8zL2Iv5/Yp0MFPUo1kl+8vdIzG6LhwLFa6lcBTsxLzwGe6y9EPzMEDzsfS8aH9iGb35MwEX3R+ApZdKLA8LrH2N9QVsEPvUY/vJgN7gWiDr84b8412Egejo3FpnUchUdRsoha/g9MRx/6emKxqdSEJ+QgZa+A+AmHaeqrgtLP2fO7yJYi1iN1CplX7vZqE3IAd1qpFx2xRNPS2V3g33WHqzduAPn7vFHz7ZSCzyPX7ftRFruMew5qsPDFWVIReKeZKTu3obvs+5G4OPDMEhKzxR1aq5sltTlVUrwvx8vI/FyGdamlsFG1whuYj0dLgZ2HriEC62t0b+dSLhwEesTr+CoOCVP/LlMLI/4aPPGmNxPHORPiAPNcfHa2RoviZ2xU5MS/LhP5CluhGDxvhRKiQlg/del2Hm5EaY+2RrdW4oDwLZ8BHwjplfSCIHdmmCgbTl2nSzD8l0l8PJtjvvUhlyRT5Spi70on1jdCbllWLXvEgb00cHVWZRzmwjgSsrh9UBzeMgzvITkH4uxNl8EIwOa49EORgFvBQuXXcqZXoDRn5dibRHgLpWhKfBrnlTWi2jRzho+jlIbLMXhRBGEigPKQw+0wINyMKXOQwRYw/oZylbbMrXEA1YXseBgObKM67DkPGJixXKKA+30p+3RydyGruW2Iu8/I/H+/y7Ape8TmDDUF25XUvHlxiNiqQC33sNF+5Xy1cRcnVQqOXQaI5aYq9fKNnDB0L7yruBHcUQXx3V0crdBYEexrtRpJ++/LIKMRnARx/gSUbiU7MvYvfsiPt0vIo8WynpNF/l2HiiFm6GNFJ7FP98pwbwC4IF7myD4HrFessuxUqz7X5tYiYDBXJuRlCBlZREeSShDenkj9BNBWfuycmw8KQK5/5XgIT+d2AauQF94BZ1Qjp1nxUdsG+HFnk3wyH1Nxb5eLORVynHhaAm+FXkvXrqMgO7N0NxwstzIRhwPmmNEfx3uM8R94oTnhfdK8LEoexuxfB5i+mfOivaTfAkt7m0GnzZW1ddbbyvofxLb4nnj7UXUz85z+PR3Eeg/qMP4+5tWfl7erpXgyXh9OYnl9hDJ0vpanVICN1FmjxZSoS8hfVUhBu0wUz/HL+Nvvs0adI+YYbXdxsRZ1X+Po2mnILwSGoQ+vr3Rwz8I0yb0g+78XuxMVgcwZ21ETHIx3B9/BdOe6oceIl+fp2bgrZGuKEyOgzgpkzIh4atUFDoHYtbLRtOKCILH+VTEbpMyZSF+1V6RZyii3hoDfznPUITMmoQAXRZivtiKQmlSddVlFCLV8vcZPgnPBYgjck6qONBaw9reDrpWOjkAtG5uD529LazlNZeOpJ/EXrnXaJNlChWfLT2aiOSqZ0wGh3cg/rwdhkyOwKjBovzic/4TZiL4XhGwbU9EtpRHnMF6SMtW8XBF3t50FFq5YtRzQ5WAyMBpKCINdSECvbCp/cX7+ci0GopZ4aMq0kNHiFMxsdNPFmfj5hQmJSKtzAFBU0OUz/gOQvCsMfAWO/f4JKVDvHDPLqRZuyF45gwM8Zfy9MOQ0BAM0Yk8O/aIXbixLgiZreaT1tGzg0S5cpC0r7av7tT1c6VI+SYOx5p5ITTCqOxzpmJIsyysXi99q0/kWavkmWaYtsgTFP4KgsVZZPzyWBwT+/8Kxvnk9qXUQ+b5LpgmtbVaymZJXVavkThzboU46bJEpIN8WULy6ZYL8lmqsX4P6ZDxtgN+f9kOZq96iZ3zk1LnSu5lJBs2jMxSxItmi7uaoJ+LlHAO324vR66Y79vPt8H749ogbJo9PpIuG5WJA8UevZRJ7NEL8cVmNd/UNmr5RDl7ivJduIz58eKoaaNDgHy5SezE96ufK7uIFHlQuRUGiqCvZrUse9k5LF9zWQQ2RvkiHLDukUZwEgeOt747f1Ud1ciCZbLp0QTPSXlzS5Fo2KaPXsG30l9Xazxk1LNuTNNt5eg6LE4uhos4wYscP0hMS+wzxoTjnbGdlfev2QV8852ZevUX9SDaQPSP59R8Bo3wyiQ7nHjvbnwWYHqI7je4JXZEKJ//YZhyiEsRH59eUb92+EwedlmO+HSljeSmXMJysf159tYhRuR7bpwjvgppAqnz6NvEi9Wv08PnEb5fRCvNmyBOmqc0/dkt8ZFo17nnLiNatBuxMcN7mJhmfymgFVpaY/xo8bqvGs1cpRkGBjXFE6LoKYdEcBn+J16IKUBiZjFKjPcRsktI3KBcTnziEXW5RRl2jGwsX0p8a8u5KoPSq9SblQ795B6yciRKZxOy8zgg76PFiUCv6spoWF/AcyPsK+q7YjvYeF4OvJF9HtEpVeunOd6/S9TPryVY1cC/7NEAAiwH9Jkejblh0g7BiGMbSPvu/ILT8svsXXtE4OCGQf8nXQqqZO8fgrBJwyCCeXH2vQfxYn/S4+F+ptNq3R8h00MQ2FWcMlTkGQBH49rTeSHATwRFv6Uiox4Rlo+vl3JpTuVynzglk3aBV21QxuzhKBoqso8j02ieHUZHY/nn4QiobpxH11GImhuNUT3V1zI7OErdzaK+zBU/b8MyrM4C+vz9H8qlSWP3uJrWRUt7UTJRDh9fk3Trjm5wl55ckV9eRdfaXgSRF/DbYaNgQdcP0z7/BJ9NUPrJ7QdMxdy5M+FvXAYrBzhKPUR5RZBOECt06Q0P40q9t71yKbKslm/h1PVzJXuwd78oqk9/+SyugpUnhs4IwbR+bVFqlKeH8bStnOE/SAo895kGnnauaGucT6eDPC66i5fp593c0EP6W6VsltRl9RqLna5hQRqj/YCmygH+zGWkG01Oem/88JawsxEHDiv14FFVxQ68DIkHLspJub9IvTji7LiHjXpJoiWem303fn/fCePuM0zHBp06KMHNxhx12cQZ72ppe3CyxrD7lN4kKZ+3KN8b3k3wUAvpzabw6alMY+Mvl5SDy6FSfCG9VUMwUqmWZZcGKkvHIQdrPG6cL8AWk6XYTeRLzFRSLWLJMhkFjcm/SHV4BSmpl+XLqNKlFrnD3Awtt5W8gwfFfsEZAf3d5NcGuhbGH7oGmSX49oz4a9/EtF59Rb2IZ+minkyCnK42GH2/LWyk/YtJ22uEgJ6GMokgo2sT+fPS+hpYUb+28OyitK0SdV/UrKnyOj3zEtIL1fbWpQ1+eF+0S+NLZ1Wki/Ugna4M62sLb0PsLtr8E8OU4GxbakndAm4D59b46NVmeFtsA06iCXy7/xKeXlgEt/BcfJqinjhISvSIPyQ9aYzR/pXrwsbbGqOkJ79KvXlykuKqemsMz55KWVcdKFG2FxHIb5MOAhUnQGbki8BOWl9WTfDX3obuU7G++jTDK6LdThbHJWkSJ5MvY5v4289btOmK+mkhXiv1nfyr0bI0QMaHxdtYKfKSVmPerFBMlO5/JD2qjB8qLJCajjjwV93Bqj01HVqL52dPI0/8cWxddZdlDcfu4sxOus5TbR4RFHWSgqI/8NvvyutrYtgX1MgV/hMGweP0TkS89DymvDoXy75ORGaB6bmpWdLYjMVRmDlVrS/xiE5W36vq9zh8+l0WrHuFYKx0GchC1hYtQyXrB0dici9rpKx6HeOeD0X0gtWI35eDUuMdhCR3L2KjIzH9eUPZIxFjyZcrxc6guo7+GtX2OdG2pGOvy11XH73t3US76e4M6xryKIFnMbL/MD3XNEuUxRIW16UlbJqiuzrWo1A6Ia8gdpK17kEqd+DLD18UZ7UX/7+9O4GrourfAP6A4BUUUBQyl7TUMsMFVN7EXtPUNDOXXMpS/2Wpuby55BblXmplLqW+qWWFlLllbqWluZRQmFJuWepbhpaBG6Assvg/vzNz4V4EBRw18Pl+PlfunTt3lnPnzjxzzpkR+35VZ7Q5z46lH8v2Uxgx8W8Empfu6z4fDmKPZ+hQgVvl7NxB1bLoLzUCzb30y6waH3VwUccM7PvZCCPt6pTMM4zkKce6Zy1DZXUw0UNN6mDlr2d/EXE5K1suI3/rlB0ajTJMUkFLXrmgae0r/B4t+q2cPCFb762olPPkyiqJF3Xolo5ixj2izMd06eunnMzU+90s0j8iP+zbp/rr2IpaKsd26x1SWtc6SU1rm8mn0GR8LF5acga7LntLhCQcUiedom7lHEHT19XYPuLV9qAHFILaVzz1H39Ev+qFjR3c0V82kPSLmLQkEYO/MoOJmr6xCBno/pJDuY1KwVt6eCb+kK/OLrdys9cym7+XBHUCJGWefQKUixOZRg1qBVdUdSxLL2/0kO22k4/enuPU8okd289nL5t6NPnKGP65Ku/i7Iq7x6LgzxWTEPpeFNwb9MDLU17DvDfVY0QrVDPfv25uwLbiWasLRr81A1OGd8FD6tdweEs4xo98AeOX/pKjCcBB0k68M2YWFv9REY8MCjXKSz2ec6rRMmX+D2vf/gKHywTiP081dqpls5w6u244UC3LtJEY/nAwfBKj8Mm8iRg4cha+sx8U/rcS419ehO0lAvDMyMnmsg9Fl7xq64qCjLS8v6vCyk9ZXi/2HfivGdiXnIJvf1PPnc6OU7Hjg3g0X5OOHR5uGNetFJY9WQoLA/J5EM0pq8YnA5v3JGY3d2TVbBQ9WaHxYLoKV2YTq787ml5uuy+KvxXpn9RQbQOXPEo4typYTWqdhpZD9FMlMe52F/ilXsQHuy6gwzQV+r++wbUsansOaOaLcaMq4Oce6oRFDVq1MQk7dBucnQueyrXc3HDblc6Js2qZM7DrUKr6vchZ2OWaBwsuoFKJXJdtXA3H2sfipxgErH3Y/KWK6I164T9dG6Oavzc8Hfos2VWoKKehaZfeiDFTDYtPQJoc4W6pqEPZ+eRLD3dp5xKQlKSGly2vf+hxukbM2Z+/SS/AW1Fd7nVzPaQlG8sOD1Sq0wqPDByJKW+/huFBbjj61Ups16fGl4rf+hW+S6uIx5/vg2Z1qhrlpR4+uVTTHA6fg5UnPdDy6aedmxCuAV3GcgVThTtQr/3jeO7lGVg4/iFUi/8F7603+g39vGUTjiIQz6lAWe+OCuay+zhdBXrd+VfQzdHx53PZEScZ64Ry3pAt8M/TlzbApv0eo9ZJfYe3Frh+JU/5Kct8S72AveZZsE9h9rn2HXimCgfrjL5DTmfHJ5OwxGzmmDOiPDr/ywdNA33QKMfvyL+yWcvzl1nrYxd/Djui47HjV3v5Z9f4rPom2WjuuFIYyUuOdc9zGdTBKVbXXKmDs1GRli/5XieH0LhkndHE2i7Q5lzrlYOVvxVj/3kSf+axT7lqJdVBWD8pgYcfK2/U3jk9yuZdm3LVMpB6PgUJ5y/Cp0459B/kjzXTyuPnx4wws2RDch63RPBELfMWenv/yvHbP5tpNA36qO1BDyiAA6eMWtyxp3LMtwS8G5bEw/p5JmJlu1aB1NgGXNBU+nldUm6+aHjF7TG7lnn9/nNGf8XLNQ+Kiq7oLH9PZiLGsVY8NQn7ZLv96ZxubrTZqw0r23JZNvXIsx9a8VAMApY6eKkvOC1HH5SkP2KMztomv3vugY/aXDdtdw5GSZELMOSFN7BZzuorB6BeGeC7Lduc+yEl7cB7w0fjlc/VSHcEo6Xa1+zZshVxjhtWUjQ2R6ppVw80b+dwK/xkyz92wrmKOO6U03JdlUMrMeKF0Zix1WGdXL1xd/3L99+6oEKlVLelOfaFyjyBo8fM5ya5ovLt7cnwadYfveoXqnGtABKwa+5oDAxd6tzZu2oA6pdTa6MTsCJ/5Ps2XhmSVEC5NO9eP653oY46+MXtiHBedqn9mzQaQ97/EWm2YDSurxb1h23Y47gvVuW+fZPajXoGoZE+gFohn2WZpwzsyLqRYQb+2H7BaA5QO90As7msYLJ34JO+l+a6nM2DUoclLiLePtv089ix17mJEDXc8LjssWLT9A0XDek4tCUJ3T9KwaSfsjdoWz13PK/GlSvBpLnjSmEk2xXWvYY7npYaAbUMnziMl/B9qtE3Sw5MBak6z/c6qdAYaISxVWqd8lUjZ+Fvxa9hA3USEYPICOfqz/hTju1PV6GmWcuZnI53dMdwU2YSvl5yEl+fcNxZWS1N16DePfEsJu20f6du8L7TDXXNV3mpVdfYrj//Nhm77H3EM1Pw9Xajb9YDarsrcDC0bxNSFhsd2+TVdrbrAtbr5y7wkfLysqGpDnmZeGdNPBKyfu+pOLTmJOYftK/PFZi1zPt2puM1NY3LNg+KCiXRVPr/quPu+p1G30q9fD8moZfabrt/a2zLAWb57FOFs+pPh2P06bN464Oz+MNx/1QMFYOAFYA60rS1ezHGv/MFvovahLWzJ2LIgmg4nVPU6ojnGnng56UT8PaKHdgTtRPfrZiF8R/ug2ejR9FMb6R34KHegfD5fSXGTV+pprUTe7avxNtjw/GdZyB6tZORqqJlj8bwOfEFQseFY7se5wssemUBNidVRa+nW+kO3nKvqnpBao98Yg3mvLdJz297+BsYOW+H8w4vv8pVkOZuHN21VS/X0TNqWJ1W6KIW6eflr2at056vwvFKuPppVwjA3bq/hDrYzn4efV/4JOtg61c/QO0sT2LljDew8itVDusWYcbIifjEcd+Zug8rw6IRb7sDrWolGNN2eOj5W8obDduqclVh9jV7uUbtwIYZ87HG4e7kNdVfd0Tj7XGqvLerMl0xF+NfWITtOU4grykVbEMHPI+3s4KtN+7t0QE1U9SyS5OMXvZN+GTcLKw8XRWPP9pYLbM7GnaTcdSyj52FDWrZZZyVU17H4hgPtHyqC2pa9mvMX1nm7SJeUzu/DpNj0X3iSXTcaFzlNrpD6cLXItibCYVPjrNjfxs669eZ6DVRzVPNt8PL5zA455mIzQdPtzVutPjS3FPm8p1SO3MVOEq7YUp7h1N1mwfuywqsBWkevMK627zR/zE3NMwx3v3LMxDr6oJxncoUrIwKsE62AHfjwCvyUSNn6W+lajv0UvvPw+umYPz79v3ZFIxbHuPUUlBorl54SperCpBfndN9oPR2EJqIXrsy8OlP9oP4tVAKD7RW26Qq2w+Wn0Xfd09hvgp1cuuDJerdho1L6pCQG1tAGUwxr/jsYG673cfGo9dB9RV5uWF060LU0KhtYmhvY3mkLAJfMqc7/iTuXpKhg1vnNqXxgN40PNDuMfOKQ1VG9481x33pLJpvz8D671KMjutXktVMKNTvpe6Vlrs0Hu1kfF/zl8ejuV73U2hj/g7mdPEy+jvWNssn8yIGzzC3b/VoMiUVrx24gF0nzKPhJfvU4sGyXfqNow5cgyZjeNPyiNu9Bu8sWINNiTXwnyl90Ey9e/gPsxei2hDv7jcBEzvVwF9bwjFjwSK8t+UUanQYiqn9sq/g8wzqh6kjOuDuk9vwnhpnRvg2/HVbB0yc2C+ricy9fh9MHd0FTUrtxmIZJ+wL/OTZFMNfGYmWDs0alR4doparIuK+X6nn98k+T7Qd3lMvV4HZGqPLYwHwO7FNreNiROrapopoOVate7MKWes049Pd8KzfBRPHddHNVpo6+UvLSDKaQUXVLnh5dAc0dI3B2qWqHL74DZ4tRmJiezlFV2e40kn/jPp7Tv1N/R9WvqemK9N2eGyXfjQWu6RcF4RjTWwFtO03Gc+Zdyd3bzII0/s1RbUz0VgctgiLv1Vnnk+rMpCbHJ6IwV/X6YwoLSMN8UkOR6rKD+HlV/qgpec+c9nXILJUsPM2UVGNo7bLtv6nsCZcxlmJzedqoNeICegVZE8f1shPWeatBBb3ccOd6RexQ5q9bCo4PFkGz2dd3VUIDjvwpvVL5gghnmg3wBNzarugltoR70i8CJ+aJbG1m5tR6+TQfOb/QHlse9INT6mz55h4Na46wQ+orcYdUTb7KiXNaCbUny9Q8+CV190WUBbhz5VEf38X3YlXxqta1Q3LRvmif53c7mt0efleJ4fQmJ8aOWt/K7L/DDX2s5GyP1uMlb/fhmcGPWRZX1dbQHksH27DuKoSWFQ5qLJI8HbFqz28MEcFimvqzvLq+yul533o13RMUqFul5sEa0+Eq7CQNxsaPumNrW1KoJ3NWOYdGS7o0bgUNr5UHoX9yUhZLBvlgTkqnMj9s/R01XbR0N8sj9YOJwz6ikNPTFe/H580Y9wY+7L39snnhR3Ztcz6BCgfX6rc3X35IBtGqzJLlYsU1Hz9zN9BZ32PNT0WGvbyQaT6LfdQX+EuWQ81bs3bzfEqZe+LLtmnFgPF5k7uRHS17HeQdsOa6eX12WlRlrrrJO5VZ/yN2sidvq9Ug1UU1v0Cdiw6g+4Hct4Jnoj+iYpBDRYRUQ6ZSfh8s9R8ueCBe/LbPPgPd+I8PpCLAXzd0JDhiugfjwGLiIqRJHy9IBbdxxr/95t/7ZJ49HJXQxUFJ89i0uRYNJ9h3BOqf+ur6AtHRNcNAxYRFSspyRf1PYIeUOFq2ZNlcRU9x/4xEhIv4pCrC/q38cToxsVhjYiKP/bBIiIiIrIYa7CIiIiILMaARURERGQxBiwiIiIiizFgEREREVmMAYuIiIjIYgxYRERERBZjwCIiIiKyGAMWERERkcUYsIiIiIgsxoBFREREZDEGLCIiIiKLMWARERERWYwBi4iIiMhiDFhEREREFmPAIiIiIrIYAxYRERGRxRiwiIiIiCzGgEVERERkMQYsIiIiIosxYBERERFZjAGLiIiIyGIMWEREREQWY8AiIiIishgDFhEREZHFGLCIiIiILMaARURERGQxBiwiIiIiizFgEREREVmMAYuIiIjIYgxYRERERBZjwCIiIiKyGAMWERERkcUYsIiIiIgsxoBFREREZDEGLCIiIiKLMWARERERWYwBi4iIiMhiDFhEREREFmPAIiIiIrIYAxYRERGRxRiwiIiIiCzGgEVERERkMQYsIiIiIosxYBERERFZjAGLiIiIyGIuFxXzORERESmrdqcg/Ltk7P4jDRfSeZi81kq6uSDoNnf0vNcDnYNKmUOLNgYsIiIiB5PWnsP8befNV3S99b+/NMY9UsZ8VXSxiZCIiMgkNVcMVzeWlL98D0UdAxYREZFJmgXpxisO3wMDFhERkUn6XNGNVxy+BwYsIiIiEzu0/zMUh++BAYuIiIjIYgxYRERERBZjwCIiIiKyGAMWERERkcUYsIiIiIgsxoBFREREZDEGLCIiIiKLMWARERERWYwBi4iIiMhiLhcV83mRl5EJfHkgFe9/m4TdR9OQnHYRJd1ccE8lN4xoUwb/rlUSJRgpiYgoD5VH/G0+u/6W9i+H+9RxKkUdu2Z+dR5zvnb+T6end/dGj2AP/Pp3Olq8ccocWnwdn36L+axoKjZx40xSJh5fcAbPfnAWOw5fgLsbUKlsCZRyB6L/SEOvd8/g+SXxOJd6/fPkifhMBL9yEp3mnEZiCv8bhsKSHY7s/NbvSTWHEBEVP6XcXfC4ClJ33qIOZNdR05olsWusH3551R9dG5Yyh1JhFYuAlZB8UQWreESoYFW3sjs2DPPFgUn+2PlyBf338yG+qF6hBE6ey0RmpvkhIiKif6hq5UtgYAtP8xUVRcUiYC37IRlRv13AvXeUxLLnyumQ5eJivCd/61d1VyGrPD7oUxbeHuYbRERE/0CH/k6HdN5pXceGjg1Yk1RUFfk+WFJ7JU2DskGG9y2Lf91e0nwnb9JMJ02Gf57NxIg2pTFvaxKOxKajYTV3LH62HLxKuSDyyAW8su4c9h5P0xu6nE0Ma10GnQJLZfXjkulM33gOK3el6CZKe3+vlx4ugyY1jOUYEB6PNT+m6Od2Mv0l/coh8DZ33WQ5fcM5rDCn4eHugofr2TCybRlUKVfC/MSljp3JwBvqc9JcJn3N5HPBt7tjQkcvp2rltIyLWBqVgre/Pq/WN0MHTgmgL7Yro6uD7UE0v+PJvD7ckYyF35zXTZ+yzvWquGH8I14IUuUnZHiHt0/r52v+44uKPtk53l4eC3qX1espzX5ShpM6eeE7VeZbDl7Q85DPvNjOC12CSuHHmDT0UN9xzubVDmrH89+ePuYrIqKr90/og7XihxTUVfvVuyq6Yefvaei58IxxrMijD9bY9l54tGEp+JUx9rUJKZnYdOACpn5+Tu03M/HuU2Vxn9qPy+eeWxyv/z4UYMO0rt4oX9oVm35O1ccQmXdOS6KSMWJZgvnq+mIfrBvs91Pp+P1kBu7wK4G7Cthe/XdiBkI/TcSx0xm4xbsE3FVYEJ9Fp+CJhWdx4K90NLuzJNrXL6U37qGfxOPtzed14IpPztQH/fd3JKH2rUbAaH5XSew5loan3z+rmyvFvXe4qyBRCp4lXVBBbfwS0Dqqh6/aqCUc/t97Z1VYSdI1a4+qMBFQ2Q2r1Pwfm38GR09l6Gnk9Jta367/PYM1P6XifjVPmbf8GL85dAFPquWW94UEkv5h8Ri9MgF/xWfAz8sVPh6uOrD0UvNdbQa//I4ny9tTTX/yukTEJWaqMnNFGZsLflA7gC5qeWQ9CmvS2kRs3J+qy0EeEtJeVMsToUKXlJWUmYRXIeG1a6NSumyJiIob2Qd+9F0yki5cRIOqbhjcsrT5zqVmP+6Dvs08dVD6Qx3LDsWm6xNfOZ7MfNxbj7NgWxJOJGSgljpG/kdNS/bbT9/nqY9JB0+kY8r6c+pYmoFf1HPpYJ+uDiGH1XR+VsdAOeGmwinyAUuuHMxUiUfSdwlXs5oln2QjktqXnWMr4Af1WP5cOZw6l6lrriqq8PDVcF+EP1tO15JsGVkeDW5zx7sqREjwkgDyTi8ffDbIV3+u3/2eeP/psnhNnRGcV2Hso++TdRD7vxBPTOrohXKerri9QglM6+KN19RDasTkCpHv/ncBz7cqjW9GV8DbT/hglZre9G7euoZK3s+tflGm82Gfslj/vC/eU2cmMu9PB/rqv/JjkIAolu5MxlcHUnVok+nvHueHPRP8MLuHD6SoVu5O0cExv+PZl/dft7vjJ/W+fTxZltIqQM5R4fPAn+l63gXlZXPVzbv2aUqAkp2L1HZJWUmZPVTXqCp/uqmn3qlI2RIRFTdyQv7et0n6gi03tROWmnxpSchJ9oEP1bXpfeVkdZIaMvWkrtkaFB6vT4KlVUP2l18fTMUHO5JxIf0i2gbYdE2YvCcnzR9GJOkardErEjD2s0ScTbqIFDWeVCa0evMUZnzpfCUj5V+RD1jSXOfq4qKblTIyc0kjlyFXasjtGyT82G1WG6LU4shBfe/xdF2bJI+tv1xATX833YwnIUNIE57074pToUxqXGLVBt24ujsqeLniuApIEkryIh3upcZGmgu91NnEmp+M+XymAkWqyihyZhH1WxpOnc+9V75UHde6pQRiE4x5n1bjPVDbptdJfixyFrL551R9JhP6sJdeHyFNffJjlRCz+Jmy6ser1jkf48n0ZHmlrCZ39s4qMxmvVR0bnviXh16nSLNsCqpbY6mRMnYg7iVc8FgjD70uCTmaBYmIbhZhEcn6uHKrTwn0auJhDs0mrSal1fHjrDouBVRx1yfF8mhXr5TeH9vUft3edUNOkD/fm6r3q4/UN05WP4xMwuLIZP2crFfkA1b18m76CsH/xWXgFxUsCkJCQjX1WUeS6IU0tw3+KN7psWynsSHKOFKzJP2m6k2IQ+DEODScbPxt9eZpXQt2JVJ7lqzOOqR57tX155zmM2Zlgg5N8r6Ml5P0l5q96TzuflnNc5Ixb1mOXu+e1WcoxjjG9KVmT8KaIwlF8qMU+R3PvrzlSrvAXwXInCRoCnv5FVQD8/N2HuoMzj3vLmhERMWe1DytVife0lLT/C4bKno77xSlpktU9S2hb6vg+KhjdqmwjyNW7U7RwUtIc6L0p6Vrp8gHLHvfJalhef2L83ke4GW49I9ybHKT5q8SkiIcyPSE1GxJBzvHx++v+eOP12/BsNalEfX7Bd1HyNvssC73Dol6uYJuDnTcoPPipn4nEiKkFkxuJ+E4n2Nv3ILfpvnr6Tl2ELeTJkDpGH7XrW74YqivnnfEixUwoIWnXich4USmLzV79h+UnZSBBDv5m9/x7Mt75vxFfUaV008xafqvjGcnFYoZDgUu88grfEo1OBEROXvzy3PY/2eabu1oUsP5RFSaBsW3hy7ozvmOD2kqbDT5pO7PK6TflXQjkY7wsm+WyokxD5XR79G1UeQDlujeyAPBt5fUTXfd3zmTdeWfkL/yuvO80+g45wxW7Lp8Ym9yR0ldk/PeN0nYdCA1azp/J2Siy7wzeGD6Kd3x72TiRb1x/0uNL3eIlyBUyaeEbqqTPli5keY+qQUS0iFRfizS12rCGrnSwxgu85POjVIjJR0P5cwlp2NnMvUPRK4CqVfF3Zh3WVc9rXRzfKkGbnm3TddoTVmfmNVhXqa/fk+KrvWSqy+lBis/40lVc5t7bLqJdOyqBP3XPp6U08ffJ+tya1nbpncEckb1d0IGtvx8QY9jTC9VXxFztWQ9iYhuBtLVJCwyWV9YJft1R7uOpunKhca3u2Pqo946RIkuDUvhk/7lsOkFXwxqYXSQH/RAaaPfVUomlv+QrI4VF/Gg2qfn1vQoJ97SLElXp9j8VzlywO8XZtxsVEhNVBmbq9o4M7NqtaSPz7yePrqGyX6bhpy3ERByNZyEGwkdcgWbbGxSuyNhRzpfSyf0Q39n6KsIZb5Bt7nrQCF3jI9RB3+5manjLR+k5kauFpQOi7Jc0jQ590kfvQHLFYdSsyZ9oCR0nb9gLK+MI/ftalTd+YxFfP1zKp75MF4/b1rTXc1D+mtdUKHPCF5y1aN0zJf5Dl+aoDuKS181CUASqCQEyvxmPuatr2rM73iyXLK8EmRzG0/Ohvo189RNi3IxwMQ1iXoZy6vxpOxkPKnhkubGnLdpsL+2k7KU8m2hApv9VgzSEf/ZD8/qsCbTlCs8pbM7EZFV/gm3aZAaKXvNk51cVNW+Xim9f3W8TYMcJ6T/reyTJWzJMUC6fMh4UhkwMDxet5RIx3bZZ0sz4ZBP4vFxv3JopuYlVw/2Uft1maYEtJUDffUFT3KyLt1RZPyRy3mbhsJwThZFmASST9QGI/f7kKst0tKhr6hLSYO+35QMl6vU5NYCV/LsfZ66Y7f9PlVyNYaEIQkaM7r7qMDlotu3P1TjyL2idqswIM12bmr4G129L0n+srG/0tlL9zM6l2LUfMk0JNjJMj37b0+UVcFLOtfLcrera9N3o88tXAkJHfJjq1zWFdt+uaBrmiqXLaGvYLT3mRIy37d6GFctyjLJeshZkCzHx33L6tBUkPEkHMq9xuSeK3IrB6nVk/KRcpLysocr8X8hHvpeXnK1pUxPQtFgdQb13P15X258JdKh84UHy+iALGGypCpDIqKbwYLtSfoEPifpt7vo2yR9wZMcV2R/Lvtlub2O9MuV46BcqS7HPglRc7cYVwXO/fq8PuZUL19C3z9RyOcWbD+vb/Uju1fZx0rIosIpVv/ZMxER0dW4kTVY5Iw1WERERETkhAGLiIiIyGIMWEREREQWY8AiIiIishgDFhEREZHFGLCIiIiILMaARURERGQxBiwiIiIiizFgEREREVmMAYuIiIjIYgxYRERERBZjwCIiIjKVdON/Iv9PUBy+BwYsIiIiU9Bt7uYzupGKw/fAgEVERGTqea+H+YxupOLwPTBgERERmToHlUL/+0ubr+hGkPKX76Goc7momM+JiIhIWbU7BeHfJWP3H2m4kM7D5LUmfa6kWVBqropDuBIMWEREREQWYxMhERERkcUYsIiIiIgsxoBFREREZDEGLCIiIiKLMWARERERWYwBi4iIiMhiDFhEREREFmPAIiIiIrIYAxYRERGRxRiwiIiIiCzGgEVERERkMQYsIiIiIosxYBERERFZjAGLiIiIyGIMWEREREQWY8AiIiIishgDFhEREZHFGLCIiIiILMaARURERGQxBiwiIiIiizFgEREREVmMAYuIiIjIYgxYRERERBZjwCIiIiKyGAMWERERkcUYsIiIiIgsxoBFREREZDEGLCIiIiKLMWARERERWYwBi4iIiMhiDFhEREREFmPAIiIiIrIYAxYRERGRxRiwiIiIiCzGgEVERERkMQYsIiIiIosxYBERERFZjAGLiIiIyGIMWEREREQWY8AiIiIishgDFhEREZHFGLCIiIiILMaARURERGQxBiwiIiIiizFgEREREVmMAYuIiIjIYgxYRERERBZjwCIiIiKyGAMWERERkcUYsIiIiIgsxoBFREREZDEGLCIiIiKLMWARERERWYwBi4iIiMhiDFhEREREFmPAIiIiIrIYAxYRERGRxRiwiIiIiCzGgEVERERkMQYsIiIiIosxYBERERFZjAGLiIiIyGIMWEREREQWY8AiIiIishgDFhEREZHFGLCIiIiILMaARURERGQxBiwiIiIiizFgEREREVmMAYuIiIjIYgxYRERERBZjwCIiIiKyGAMWERERkcUYsIiIiIgsxoBFREREZDEGLCIiIiKLMWARERERWYwBi4iIiMhiDFhEREREFmPAIiIiIrIYAxYRERGRxRiwiIiIiCzGgEVERERkMQYsIiIiIosxYBERERFZjAGLiIiIyGIMWEREREQWY8AiIiIishgDFhEREZHFGLDyKW5FX9zeZznizNfXRcYxrB41E1tSzdf0j7d/0XAs3MsvjK6T2M2YPmoURoXvMwcQ0T9FMQhYcVjapxZuvyO3xzTsNseyVEYcIj4Kx+4z5usr2D1NLcu0aPNVfsVh9XMdsTq4G1rYzGnkFvB+mKbWsy+WnjBfX0Hqr2sR9vkRWBoBTixHnzyXwfx+cq5/UjSmtK6F1mq4Xpa4SIR9FI0E/eY1ctnltMY9j/dC3IuDsfSYOYAoF/vCVShSwSjskly0D2ESmKZvRqw55GYTu2m6LhunR+h4zA7fjqPJ5ki5Oo6Nb03G9I+jkWgOoVzYQ/llHpdul1QYxacG6/8W4qddu3I8hiHIfNtS56OxZuo0LIu6dnEg4fOpGG2bgFldq5hDrBGzdS7Gz9yKGPP1jaqZWzqkF8KqT8GikYFQ+REJu9diytTliLimCes68AzECyOqYPyQcBzOMIcRUYH5Vg9EYJDxCKjkhuN71mHufBU8M80RcspMRuKZRMSevWwKI4/KqGuWa2BQbVT2kIG+qJY1LBA1y+ox6SoVn4Bl84F3Oe8cDzl0XwPeD2Lavn2Y1sbbHGCxjAMIm/YlHnv8QVg9h5r9NuC3r55BTfP19ZeK3W88i/F/PYOPZ3dD1RLGUO82U3Bw3xS0vUZFej3ZmvdEaPo0LI5kUyFRYVVq1gM9HjcevQePRZ9GKgn8uRGbD5oj5ORaE13Hv47XB4bAyxxEufCqjTZmufZ4vD0CdGFVwv1Zw3ogxNrz+pvWTdEHy6ilCUfE2ono0lCaDgMQLDUMSeYIIiEaC/uGoPYdtVA7pC/mRK7FlDybk6LVe7Uw5QfzpRIj0w4J0E2T9VsPUp/PUSeUHofdC/oiOEDNPyAEXaZtRVxeNRy/bMWyYz3RpklBA6K5XBuz1+X2ht0xZWv2smTXWBnjBo/aCmwNRbDj+mQkYPdHw82yaojWA+YhwnF14iIxx7Gsth7Ld5NjzIrBeGJzc3y8bBiCPM2BQjd12pt0r7weQpe5uYxdxi7HlkVq3RybIvOxnAnR4RjapaH+3mqHdMf4FQ7Np2aT4sK12ePU7zIRG46peX9u/77VttR9GrY4LVoNhDxaA2EbI/NdLkR5Sj6KzYumIXSMNN+EYvxbKxCdV/eEfWG6iWf2snVYNDXUaPJ5eTo+O1j0a3V8fY3YlCY1WGYz13S1nmGvqvXUTaqOzaux2DxdPR8Thn1ZNV5Hse5VNezVdeqZknka0avmYtrLUq6jEDpxNlb8eFqPaUjH8cgwTDffl3IMizyuhqYjapEMm47NWe24uc2viLvsdmeW9aJ12DhHtjO13vYyGLUAn21ahMmh8lyV6xxV3qdkWpMRKp8ZE4rpqw4ia4uU72HZbIy3jz91ETYfKR6NvDdPJ/et0zDlp/sxa9Mu/LRlBh6KnogB4UeM9zKOIOzp7ngTA7EyYheiPh0GP/XDW2i8e0Wp305E6xePoeP8Lbppct0Yf6x+chDC9K/YtGgGlvkOw/pv1PSXPAOfBYNVCMv98Buz5zvENK+BWmbtTkEtDH0XtudXI2pXBNYN8sHCwTOx4ZKmt0CE/u8Qol5vDjSfgij1PLSR8c7+Bd3xxNYgTFovzawb8Fq9rejzxDzsl0AoZfVcb8xxLKvdGxFhfPSyUlWI6jMKmPj+GOdwlYfLrUfqVlXmQyIR8LqU+RbManMMc2aosGiXj+VMjZ6JLl3C4TNwtf7evpnfATETOmLACscOVFvx5hqg71w1n4jVeMF3OQa0DcCArXUw6dMINWwZBvuEY8AbXzr1H6t5ZxNgVTT2m6/zIywsDK1bt77sQ8ahm0imOmjNn4uNvwK1W3VFj0eC4HUiCkvUwe7wZQ7kx3dHI7l2W3R9MAD+ahoRHyxwCANFT3r8YUT8KCvgq4KWMUzE/rAdB9M94OXjATdzmMEfwf+qrMrvCA6au3n8sRfR8WoKDQJRTb08vGo2lkTGwreJKtcnuiLY5ziiPp6Nz343Rk/cMR+zV+1Don8I2j/RHiH+idinPhOmzgKDGtRWY6hI94sZBGLVtGXxAoIQUByOqvnd7g5ux+YTUv7eDuV/GNEHfHF/d1VmVTyQ/sd2zH1jPna6haBTl2aoWTodsZFLsP6QjJuOfarMl/xwGtUe6KG+h/ao63oQG+fPL9Lbq13xCVgqFGR3bjcejjVMqDsGs15ujqrSdFjtQXTvUQWHdx4w+h79shHvRj+I117viXsqqvcr1sFjw59BC/3BK0uIO4bUGvcipI6fbpqs2nIY/hs2DA1tDgHqyTGY2LUO/NT7fnU7oE3zVGzZa//lO4v7PRK4syb8zNcF1fvNGehdV5bFD/d07YaOSWuwP/dZXSrhSyx8w6bOWsyyUNMI6jcMvY/Mw4Y96v09azClMGX16zwMmBAJm2cMjpzIX71O3uuRgC2rwuE/bAYmtqxilPl9w/BST/0xwxWXU03jg3lIdZiGX92e+O/sDtgyIRy7s2oXm2Di+Oxp9O6vZpIUhF7Pd8ue7pPdkPr5frVbceBfBfckHUCMc6XbZfXu3Ru9evUyX11K3pNxqPjYF2actWc/pCbAwYEN2PgnUPnhQejdKhiB/+6KoY+qg/v5vfjxMr9p3wf6Y1DnZghu1RtDu6rxM49jpw4oRYdj2YS+ugARsW6o/FAftK9kjqB4BPXBpPFjMbZviIpezrzqBaIykrF3j/HLjP31IBLVWAGBKngp1duOwNixY9DnYVWuDYLRqVWAGpqMw4elnI5i21Z1huwTgj6DO6FZg2boNLibDk8Hf1QJKyAQtdXz49FGh/rEQwdV3PJAcCOZRjGQ3+2uShuMmaTK/6VOkMhpCFBlZZbZcw8bwyu1xaDeLVXobY9+jxjlfPyY1Baext8nklU5B6JZ80D1PTRDj379VNBqiZrXqIfP9VR8AlYundxfCDTfE+Vt8DGfCn+/mkBGin4e90s0Yqrcg5rl9MsC82szEIMzZqJ1cFsMGPseln4bB/8mTdQB2GELKe2jO3M7iom/Ng1ItjIOc/L2U+dyqUjNb4frI/uxAQcwvrVDWK3VGwvNacQdOYDUumrdClpWP5VEx3dWY+XC5tjw1IvYkI8rMPNejyPYv1mdRdbIu6PAlZfzCHavBdo2qmO+NtjuCUSLpCM4lBWM1DI4nxorzsP0cibl+C5L29TyAin5LXdTXiGL4ap4qtZUztodHyG6dsUu9oQRio6vnZwdNpZJJ6TkSzY5R24Oe3a3KtX0tng6tmgFLOey6YchEydhSAtZk2xeFXwv/XnaqYN2oNpFJB88qOJSIg7/qta/XAACzYDm5noa0asXZDVljXK6dC4Rp+PVn6rVUM1elq4B6D3tdbzeJxhuJQMRLDnh2F7sTUzE3p9UGPOoi4A7jVGLunxvd763wDeXFOFuH1bS0/h+fH2z+8WZX1haRrr61x91m9aER3wEFrwcislvLcJnu1JQTQXYao4H7CKq+ASsXDq52/LZxGazqa9exjdfF5hcObZuHw5+OgPd6ycgcmZ31G8big3X8HYAzqrAv5Dh8BIZKsTgEcza7hxWnQKrChQFLqtuz6Kj2tnZmgzDrJ4HMHTUcsQUMHxkU/NXp6s+nldYisIsp1XUvkP2Q6UK0cybM2QxXBVfXjXkrN3xUTOXDtpuCHxiLMaOdX50y64yKJacy6YmKnvkGaXy4IXAhiquxh/E4UN7Ef27Os7rWi2RiIj350LttlXZDjHKtEvBCjSgUTA8VHSL/j4KB9W0Pe4J0LVaxcf12e78m/TD2JcGoUerYPXdHEXUl2GYNm4BIiTgFnHFanMoLO/qNVF1byT25/O+Vs4SsPuTmVi4NQ62anXQoqsKEMuWIdRzOZZ9W4D2IQd+1ZsAvx52unVC1buaA4fjEJsjlMT8slvlKz/4W5Ukqt2DFojG/hM258DqbQRWvzqBqBq5Nd/3ALuUDUHPT0Xv30Mx1N4HrsCqoKYKe3k1sYorL2cNBD0CbPjhgPnakLo/Gls8a6BWYdtn7WKOIMKzDqoWcjr2kMVwdXPz1R2O0nE05jS8vLzMh1xX74HL5Y10h34y6ceOQuojfP2da39uBl6NG6O2WvudK7arQ7c/Gjc24pU0AR6WvlYVAhASUNkoV5tjgXrBV2pQYo7iqL0sM48i4pMlWLLtsJw/AXcGoK76Ko5u2oiD6vuoG1h8Em9ht7sCO38QG1WZLj+gwlyrTujz/EQVdGuqWR/Gzt2OFxwUTcUnYKXGI+FMQo5HPpvg6nTDoOZfYvSocBUs1OdOHMDSGe9hi/n25Xmjqu0A3hw3FUv3xun5xh2IROQRG6pWLNw9B6rWuxdVtx7BIYcwJc2QfW0zMfTF5cYynonD4bXTMGDqAXSU/lLmeAVl81Tny1EHsEtNUze/+T2Iwf1sWPjixOz12RuOAf8ejg2S+O5qg2cDC1tWJqnxe30gEiYOwpQf8vkdOfFGi17PADOHY/zmY3oZY76diVfDzbfFFZdTTeOpgbA5TCNu73KMn7YGLSb0RFAhLzCwO/xrJNA5sNDfi5BgxXB1c3Nr0B5tKgGnv5mP6eGbEfXjdnw2ZyomvzofEZc5yTn99SKEbYpC9DcrMGvFQbWnr4zGDW6+gIWSQQhQuef0GXWw9g9E3awiqIbq0sMgVpXneqOcpi9zbCKshvubS+1XBBbN+Qzbdbkvwmdy8UDpykYrl2ttNG6k9p8SwDzqokEtGVg8FHa7K7DSvnA7EY3o1Yux5Bv198cobP7xuHrDA9Vuz9mrrugpPgHrw76o37BhjsfMfN7J3Q+PzVqGFzAPXUIaIvjRmThSuzlCzHevxK/zHKx73gfL+rfQ8/13/22oOXsDJt5XyGqlu5qje5VwbHW8+bkKJaEfh6F7xnI83UrWrQWeWByLjgu3YFa7wt88yrvlswgNWoMBISGYI53YpYZp5GJ81C0Fy54K0evTasJuNJk7AW2lNqZEDfR+37ms4tr0xGPy0QKwBQ7DrJFQQU59R463y8gnW6Mx+Gh2E+wbJWXeAkNX+aFFO/NNkY/llGVYubIn4ud1NL+35bD1X43/XvXNXY8hYs0R9G7T5MY1UVLx4OqPlv0HoX09X5zetxErPl6HqMTKaNO3N0Iu0y3At05NpO/8DEvWRiFWTSPkqX5oeRPmK2nmMq74U/mqQV3dF83ghWa9eiC4YhoOb1uBJRt/R/UHgvX79v5HXk37Y0jnAHjFRmCdlPsZXwQ/Pga95X5cpmr1A3WTrlejxjfw3oLXQCG3u4Iz5xPghr3rl2DJxysQcUKV8xND0Km6OUoR5nJRMZ/f3KT2xrHW4kg42rfehr7fL0THq20uKoSEz4cj+PMWiJrziOU3Gy02nL6zVGwZG4ABvstwcJi9s9iNIbejaD21ChYt64maV1kTRlQgch+ssH3wf3AERrS6KRPVdZX8/QKMX/k3mg0ei/a3mQOJTOyDpR3Bwo5tMWbFAcRJ0+IJuZP6NBx+pBta3IBwJbzbTcCsEhMw1OmeTGSXsDkU9XvMRMRRaS5NQMzmaZjyUQ0MbnNjw5X8H4tvTjiCQbMZroiKrdjD2Lx+EeauPgz4hyCY4YpywYCl1UDfd8ejyubhaCVNi62exeqK47FuqvX/VU3+eaPtjNXoHrUGEYXpplTMeTcfg4+7J+DNHkYzZvtpsej40WIMdr7rwnW3/5PF8Js6B49dbSsjEf1zndyJjdsO4nTpAHR9pqVD0yNRNjYREhEREVmMNVhEREREFmPAIiIiIrIYAxYRERGRxRiwiIiIiCzGgEVERERkMQYsIiIiIosxYBERERFZjAGLiIiIyGIMWEREREQWY8AiIiIishgDFhEREZHFGLCIiIiILMaARURERGQxBiwiIiIiizFgEREREVmMAYuIiIjIYgxYRERERBZjwCIiIiKyGAMWERERkcUYsIiIiIgsxoBFREREZDEGLCIiIiKLMWARERERWYwBi4iIiMhiDFhEREREFmPAIiIiIrKY657f/jafEhEREdHVA/4fLRShjp6MmrwAAAAASUVORK5CYII=;" parent="56" vertex="1">
                    <mxGeometry x="4.35" y="110" width="371.31" height="440" as="geometry"/>
                </mxCell>
                <mxCell id="78" style="edgeStyle=none;html=1;fontSize=10;strokeColor=#0000FF;fontColor=#333333;" parent="1" source="68" target="77" edge="1">
                    <mxGeometry relative="1" as="geometry"/>
                </mxCell>
                <mxCell id="68" value="/auth/${provider}/callback" style="verticalLabelPosition=bottom;html=1;verticalAlign=top;align=center;strokeColor=none;fillColor=#00BEF2;shape=mxgraph.azure.express_route;pointerEvents=1;fontColor=#333333;" parent="1" vertex="1">
                    <mxGeometry x="290" y="700" width="50" height="30" as="geometry"/>
                </mxCell>
                <mxCell id="70" style="edgeStyle=none;html=1;entryX=1.028;entryY=0.68;entryDx=0;entryDy=0;entryPerimeter=0;strokeColor=#0000FF;" parent="1" source="59" target="68" edge="1">
                    <mxGeometry relative="1" as="geometry"/>
                </mxCell>
                <mxCell id="74" style="edgeStyle=none;html=1;fontSize=10;fontColor=#333333;" parent="1" source="72" edge="1">
                    <mxGeometry relative="1" as="geometry">
                        <mxPoint x="225" y="490" as="targetPoint"/>
                    </mxGeometry>
                </mxCell>
                <mxCell id="72" value="&lt;div style=&quot;color: rgb(0, 0, 0); background-color: rgb(255, 255, 255); font-family: consolas, &amp;quot;courier new&amp;quot;, monospace; font-weight: normal; font-size: 10px; line-height: 19px;&quot;&gt;&lt;div style=&quot;font-size: 10px;&quot;&gt;&lt;span style=&quot;color: rgb(0, 0, 0); font-size: 10px;&quot;&gt;{&lt;/span&gt;&lt;/div&gt;&lt;div style=&quot;font-size: 10px;&quot;&gt;&lt;span style=&quot;color: rgb(0, 0, 0); font-size: 10px;&quot;&gt;&amp;nbsp; &amp;nbsp; &lt;/span&gt;&lt;span style=&quot;color: rgb(4, 81, 165); font-size: 10px;&quot;&gt;&quot;client_id&quot;&lt;/span&gt;&lt;span style=&quot;color: rgb(0, 0, 0); font-size: 10px;&quot;&gt;: &lt;/span&gt;&lt;span style=&quot;color: rgb(163, 21, 21); font-size: 10px;&quot;&gt;&quot;&amp;lt;provider_client_id&amp;gt;&quot;&lt;/span&gt;&lt;span style=&quot;color: rgb(0, 0, 0); font-size: 10px;&quot;&gt;,&lt;/span&gt;&lt;/div&gt;&lt;div style=&quot;font-size: 10px;&quot;&gt;&lt;span style=&quot;color: rgb(0, 0, 0); font-size: 10px;&quot;&gt;&amp;nbsp; &amp;nbsp; &lt;/span&gt;&lt;span style=&quot;color: rgb(4, 81, 165); font-size: 10px;&quot;&gt;&quot;redirect_uri&quot;&lt;/span&gt;&lt;span style=&quot;color: rgb(0, 0, 0); font-size: 10px;&quot;&gt;: &lt;/span&gt;&lt;span style=&quot;color: rgb(163, 21, 21); font-size: 10px;&quot;&gt;&quot;${protocol}://${domain}:${port}/auth/${provider}/callback&quot;&lt;/span&gt;&lt;span style=&quot;color: rgb(0, 0, 0); font-size: 10px;&quot;&gt;,&lt;/span&gt;&lt;/div&gt;&lt;div style=&quot;font-size: 10px;&quot;&gt;&lt;span style=&quot;color: rgb(0, 0, 0); font-size: 10px;&quot;&gt;&amp;nbsp; &amp;nbsp; &lt;/span&gt;&lt;span style=&quot;color: rgb(4, 81, 165); font-size: 10px;&quot;&gt;&quot;state&quot;&lt;/span&gt;&lt;span style=&quot;color: rgb(0, 0, 0); font-size: 10px;&quot;&gt;: &lt;/span&gt;&lt;span style=&quot;color: rgb(163, 21, 21); font-size: 10px;&quot;&gt;&quot;&amp;lt;base64&amp;gt;&amp;lt;CSRF protect&amp;gt;&quot;&lt;/span&gt;&lt;/div&gt;&lt;div style=&quot;font-size: 10px;&quot;&gt;&lt;span style=&quot;color: rgb(0, 0, 0); font-size: 10px;&quot;&gt;}&lt;/span&gt;&lt;/div&gt;&lt;/div&gt;" style="text;whiteSpace=wrap;html=1;fontSize=10;" parent="1" vertex="1">
                    <mxGeometry y="540" width="450" height="130" as="geometry"/>
                </mxCell>
                <mxCell id="77" value="&lt;div style=&quot;color: rgb(0, 0, 0); background-color: rgb(255, 255, 255); font-family: consolas, &amp;quot;courier new&amp;quot;, monospace; font-weight: normal; font-size: 14px; line-height: 19px;&quot;&gt;&lt;div&gt;&lt;span style=&quot;color: #000000&quot;&gt;{&lt;/span&gt;&lt;/div&gt;&lt;div&gt;&lt;span style=&quot;color: #000000&quot;&gt;&amp;nbsp; &amp;nbsp; &lt;/span&gt;&lt;span style=&quot;color: #0451a5&quot;&gt;&quot;provider&quot;&lt;/span&gt;&lt;span style=&quot;color: #000000&quot;&gt;: &lt;/span&gt;&lt;span style=&quot;color: #a31515&quot;&gt;&quot;&amp;lt;providerName&amp;gt;&quot;&lt;/span&gt;&lt;span style=&quot;color: #000000&quot;&gt;,&lt;/span&gt;&lt;/div&gt;&lt;div&gt;&lt;span style=&quot;color: #000000&quot;&gt;&amp;nbsp; &amp;nbsp; &lt;/span&gt;&lt;span style=&quot;color: #0451a5&quot;&gt;&quot;name&quot;&lt;/span&gt;&lt;span style=&quot;color: #000000&quot;&gt;: &lt;/span&gt;&lt;span style=&quot;color: #a31515&quot;&gt;&quot;&amp;lt;fullName&amp;gt;&quot;&lt;/span&gt;&lt;span style=&quot;color: #000000&quot;&gt;,&lt;/span&gt;&lt;/div&gt;&lt;div&gt;&lt;span style=&quot;color: #000000&quot;&gt;&amp;nbsp; &amp;nbsp; &lt;/span&gt;&lt;span style=&quot;color: #0451a5&quot;&gt;&quot;first_name&quot;&lt;/span&gt;&lt;span style=&quot;color: #000000&quot;&gt;: &lt;/span&gt;&lt;span style=&quot;color: #a31515&quot;&gt;&quot;&amp;lt;firstName&amp;gt;string&quot;&lt;/span&gt;&lt;span style=&quot;color: #000000&quot;&gt;,&lt;/span&gt;&lt;/div&gt;&lt;div&gt;&lt;span style=&quot;color: #000000&quot;&gt;&amp;nbsp; &amp;nbsp; &lt;/span&gt;&lt;span style=&quot;color: #0451a5&quot;&gt;&quot;last_name&quot;&lt;/span&gt;&lt;span style=&quot;color: #000000&quot;&gt;: &lt;/span&gt;&lt;span style=&quot;color: #a31515&quot;&gt;&quot;&amp;lt;lastName&amp;gt;string&quot;&lt;/span&gt;&lt;span style=&quot;color: #000000&quot;&gt;,&lt;/span&gt;&lt;/div&gt;&lt;div&gt;&lt;span style=&quot;color: #000000&quot;&gt;&amp;nbsp; &amp;nbsp; &lt;/span&gt;&lt;span style=&quot;color: #0451a5&quot;&gt;&quot;nick_name&quot;&lt;/span&gt;&lt;span style=&quot;color: #000000&quot;&gt;: &lt;/span&gt;&lt;span style=&quot;color: #a31515&quot;&gt;&quot;&amp;lt;nickName&amp;gt;string&quot;&lt;/span&gt;&lt;span style=&quot;color: #000000&quot;&gt;,&lt;/span&gt;&lt;/div&gt;&lt;div&gt;&lt;span style=&quot;color: #000000&quot;&gt;&amp;nbsp; &amp;nbsp; &lt;/span&gt;&lt;span style=&quot;color: #0451a5&quot;&gt;&quot;user_id&quot;&lt;/span&gt;&lt;span style=&quot;color: #000000&quot;&gt;: &lt;/span&gt;&lt;span style=&quot;color: #a31515&quot;&gt;&quot;&amp;lt;providerId&amp;gt;big Integer&quot;&lt;/span&gt;&lt;span style=&quot;color: #000000&quot;&gt;,&lt;/span&gt;&lt;/div&gt;&lt;div&gt;&lt;span style=&quot;color: #000000&quot;&gt;&amp;nbsp; &amp;nbsp; &lt;/span&gt;&lt;span style=&quot;color: #0451a5&quot;&gt;&quot;email_address&quot;&lt;/span&gt;&lt;span style=&quot;color: #000000&quot;&gt;: &lt;/span&gt;&lt;span style=&quot;color: #a31515&quot;&gt;&quot;&amp;lt;email&amp;gt;&quot;&lt;/span&gt;&lt;span style=&quot;color: #000000&quot;&gt;,&lt;/span&gt;&lt;/div&gt;&lt;div&gt;&lt;span style=&quot;color: #000000&quot;&gt;&amp;nbsp; &amp;nbsp; &lt;/span&gt;&lt;span style=&quot;color: #0451a5&quot;&gt;&quot;location&quot;&lt;/span&gt;&lt;span style=&quot;color: #000000&quot;&gt;: &lt;/span&gt;&lt;span style=&quot;color: #a31515&quot;&gt;&quot;&amp;lt;coordinat&amp;gt;or&amp;lt;locationName&amp;gt;&quot;&lt;/span&gt;&lt;span style=&quot;color: #000000&quot;&gt;,&lt;/span&gt;&lt;/div&gt;&lt;div&gt;&lt;span style=&quot;color: #000000&quot;&gt;&amp;nbsp; &amp;nbsp; &lt;/span&gt;&lt;span style=&quot;color: #0451a5&quot;&gt;&quot;avatar&quot;&lt;/span&gt;&lt;span style=&quot;color: #000000&quot;&gt;: &lt;/span&gt;&lt;span style=&quot;color: #a31515&quot;&gt;&quot;&amp;lt;image&amp;gt;&quot;&lt;/span&gt;&lt;span style=&quot;color: #000000&quot;&gt;,&lt;/span&gt;&lt;/div&gt;&lt;div&gt;&lt;span style=&quot;color: #000000&quot;&gt;&amp;nbsp; &amp;nbsp; &lt;/span&gt;&lt;span style=&quot;color: #0451a5&quot;&gt;&quot;description&quot;&lt;/span&gt;&lt;span style=&quot;color: #000000&quot;&gt;: &lt;/span&gt;&lt;span style=&quot;color: #a31515&quot;&gt;&quot;&amp;lt;description&amp;gt;&quot;&lt;/span&gt;&lt;span style=&quot;color: #000000&quot;&gt;,&lt;/span&gt;&lt;/div&gt;&lt;div&gt;&lt;span style=&quot;color: #000000&quot;&gt;&amp;nbsp; &amp;nbsp; &lt;/span&gt;&lt;span style=&quot;color: #0451a5&quot;&gt;&quot;access_token&quot;&lt;/span&gt;&lt;span style=&quot;color: #000000&quot;&gt;: &lt;/span&gt;&lt;span style=&quot;color: #a31515&quot;&gt;&quot;&amp;lt;Toen&amp;gt;Length ~ 256&quot;&lt;/span&gt;&lt;span style=&quot;color: #000000&quot;&gt;,&lt;/span&gt;&lt;/div&gt;&lt;div&gt;&lt;span style=&quot;color: #000000&quot;&gt;&amp;nbsp; &amp;nbsp; &lt;/span&gt;&lt;span style=&quot;color: #0451a5&quot;&gt;&quot;expires_at&quot;&lt;/span&gt;&lt;span style=&quot;color: #000000&quot;&gt;: &lt;/span&gt;&lt;span style=&quot;color: #a31515&quot;&gt;&quot;&amp;lt;UTCTime&amp;gt;&quot;&lt;/span&gt;&lt;span style=&quot;color: #000000&quot;&gt;,&lt;/span&gt;&lt;/div&gt;&lt;div&gt;&lt;span style=&quot;color: #000000&quot;&gt;&amp;nbsp; &amp;nbsp; &lt;/span&gt;&lt;span style=&quot;color: #0451a5&quot;&gt;&quot;refresh_token&quot;&lt;/span&gt;&lt;span style=&quot;color: #000000&quot;&gt;: &lt;/span&gt;&lt;span style=&quot;color: #a31515&quot;&gt;&quot;&amp;lt;Toen&amp;gt;Length ~ 256&quot;&lt;/span&gt;&lt;/div&gt;&lt;div&gt;&lt;span style=&quot;color: #000000&quot;&gt;&amp;nbsp; }&lt;/span&gt;&lt;/div&gt;&lt;/div&gt;" style="text;whiteSpace=wrap;html=1;fontSize=10;" parent="1" vertex="1">
                    <mxGeometry x="20" y="800" width="380" height="300" as="geometry"/>
                </mxCell>
            </root>
        </mxGraphModel>
    </diagram>
</mxfile>